<svg width="146" height="53" viewBox="0 0 146 53" fill="none" xmlns="http://www.w3.org/2000/svg">
<path d="M48.2146 31.9009C49.3672 31.2423 50.1007 29.9998 50.1007 28.4879C50.1007 25.1349 47.6907 24.0272 43.4245 24.0272H36.0148V35.3887H39.6522V33.0086H43.4394C44.0083 33.0086 44.5471 32.9787 45.0412 32.9188C45.7147 33.5774 46.2985 34.6402 46.538 35.3737H50.3102C49.9061 34.1612 49.1127 32.7242 48.2146 31.9009ZM43.6041 30.389H39.6522V26.6467H43.6041C45.5201 26.6467 46.6129 26.991 46.6129 28.4879C46.5979 29.9998 45.5201 30.389 43.6041 30.389Z" fill="#DA0E29"/>
<path d="M33.081 24.0272H29.4434V35.3887H33.081V24.0272Z" fill="#DA0E29"/>
<path d="M62.3903 24.0272H58.7528V35.3887H62.3903V24.0272Z" fill="#DA0E29"/>
<path d="M103.151 24.0272H99.5137V35.3887H103.151V24.0272Z" fill="#DA0E29"/>
<path d="M90.0378 24.0272H82.8529V35.3887H90.0378C94.2593 35.3887 97.3727 33.4876 97.3727 29.7004C97.3727 25.9132 94.2593 24.0272 90.0378 24.0272ZM89.6044 32.6793H86.4901V26.7366H89.6044C92.3135 26.7366 93.7508 27.6946 93.7508 29.7004C93.7508 31.7063 92.3135 32.6793 89.6044 32.6793Z" fill="#DA0E29"/>
<path d="M76.4315 29.2064C74.2606 26.7815 71.6412 25.0301 68.3929 24.0272H65.3093V35.3887H68.7971V27.7096C72.1202 28.7873 75.1887 32.1704 76.701 35.3887H79.9041V24.0272H76.4162V29.2064H76.4315Z" fill="#DA0E29"/>
<path d="M17.1687 24.0272C14.7737 26.7366 11.4056 31.3022 11.4056 35.3887H15.0281C15.0281 34.7749 15.103 34.1462 15.2526 33.5325H23.5006C23.6503 34.1612 23.7252 34.7749 23.7252 35.3887H27.3476C27.3476 31.3022 23.9796 26.7366 21.5845 24.0272H17.1687ZM16.0759 31.1375C16.9591 29.2064 18.2465 27.4102 19.3691 26.1079C20.4918 27.4102 21.7791 29.2064 22.6623 31.1375H16.0759Z" fill="#DA0E29"/>
<path d="M115.426 24.0272H111.01C108.614 26.7366 105.247 31.3022 105.247 35.3887H108.869C108.869 34.7749 108.944 34.1462 109.094 33.5325H117.342C117.492 34.1612 117.566 34.7749 117.566 35.3887H121.189C121.189 31.2872 117.821 26.7366 115.426 24.0272ZM109.917 31.1375C110.8 29.2064 112.088 27.4102 113.21 26.1079C114.333 27.4102 115.62 29.2064 116.503 31.1375H109.917Z" fill="#DA0E29"/>
<path d="M133.942 31.2123C134.242 28.9968 133.703 27.0808 133.253 25.8233C132.939 24.9402 132.685 24.2367 132.46 23.6079C131.442 20.7489 131.248 20.2249 130.544 17.3659L130.304 16.4228L129.376 16.1234C126.562 15.2104 126.068 14.9858 123.284 13.7434C122.671 13.4739 121.982 13.1596 121.129 12.7854C120.126 12.3513 118.599 11.7525 116.758 11.6926C113.929 11.5878 111.219 12.7404 108.689 15.1055L108.735 15.0906C108.091 15.6594 107.432 16.3181 106.758 17.0814C106.758 17.0814 106.773 17.1264 106.923 17.0066C107.806 16.2881 110.696 13.5937 118.554 17.1264C122.416 18.8628 126.128 20.4046 126.128 20.4046C126.128 20.4046 127.341 24.2217 128.733 28.2334C131.562 36.3616 128.628 39.0111 127.835 39.8194C127.715 39.9542 127.76 39.9691 127.76 39.9691C128.898 39.1458 129.811 38.3226 130.574 37.5142C132.49 35.5832 133.628 33.4726 133.942 31.2123Z" fill="url(#paint0_linear_905_713)"/>
<path d="M130.32 16.3934L129.392 16.094C126.578 15.1809 126.084 14.9564 123.3 13.714C122.685 13.4445 121.997 13.1302 121.144 12.7559C120.141 12.3218 118.614 11.723 116.772 11.6632C113.944 11.5584 111.234 12.711 108.705 15.0761L108.749 15.0612C108.106 15.63 107.447 16.2887 106.773 17.052C106.773 17.052 106.788 17.097 106.938 16.9772C107.821 16.2587 110.71 13.5642 118.569 17.097C122.431 18.8333 126.143 20.3751 126.143 20.3751L130.32 16.3934Z" fill="#FED9A0"/>
<defs>
<linearGradient id="paint0_linear_905_713" x1="144.587" y1="52.1575" x2="114.799" y2="11.6365" gradientUnits="userSpaceOnUse">
<stop offset="0.1805" stop-color="#FED9A0"/>
<stop offset="0.3124" stop-color="#ECC890"/>
<stop offset="0.5738" stop-color="#BF9A66"/>
<stop offset="0.7464" stop-color="#9E7947"/>
</linearGradient>
</defs>
</svg>
