<svg width="41" height="39" viewBox="0 0 41 39" fill="none" xmlns="http://www.w3.org/2000/svg">
<path d="M15.5689 34.8486L15.566 34.8544L16.1124 35.0615C16.1124 35.0615 16.1139 35.0615 16.1153 35.0615L16.1486 35.0745C16.283 35.1252 16.4189 35.1686 16.5533 35.2164C16.6906 35.2642 16.8279 35.3164 16.9652 35.3613C17.117 35.4105 17.2702 35.4525 17.4235 35.4974C17.5521 35.535 17.6793 35.577 17.808 35.6118C17.967 35.6552 18.126 35.69 18.285 35.7291C18.4093 35.7595 18.5321 35.7928 18.6564 35.8189C18.8154 35.8537 18.9773 35.8812 19.1363 35.9116C19.2607 35.9348 19.3864 35.9623 19.5107 35.984C19.6654 36.0101 19.8201 36.0289 19.9762 36.0506C20.1077 36.0694 20.2392 36.0912 20.3708 36.1071C20.5182 36.1245 20.6671 36.1346 20.8145 36.1491C20.9533 36.1621 21.0935 36.1781 21.2323 36.1882C21.3725 36.1983 21.5113 36.1998 21.6515 36.207C21.7989 36.2128 21.9478 36.223 22.0952 36.2258C22.2253 36.2287 22.3569 36.2244 22.4869 36.2229C22.6445 36.2229 22.8006 36.2244 22.9582 36.2201C23.0796 36.2157 23.201 36.2056 23.3224 36.1998C23.4887 36.1911 23.6549 36.1853 23.8197 36.1723C23.9324 36.1636 24.0452 36.1476 24.1594 36.1361C24.3328 36.1187 24.5063 36.1042 24.6783 36.081C24.7838 36.0665 24.8893 36.0477 24.9948 36.0318C25.1741 36.0043 25.3533 35.9796 25.5326 35.9478C25.6366 35.929 25.7393 35.9043 25.8433 35.8841C26.0226 35.8479 26.2033 35.8145 26.3811 35.7726C26.4866 35.7479 26.5906 35.7175 26.6962 35.6915C26.8725 35.6466 27.0489 35.6046 27.2238 35.5553C27.3423 35.522 27.4579 35.4815 27.5765 35.4453C27.7369 35.396 27.8988 35.3497 28.0578 35.2961C28.237 35.2353 28.4134 35.1672 28.5912 35.1006C28.688 35.0644 28.7863 35.0311 28.8832 34.9934C29.1564 34.8862 29.4281 34.7704 29.6984 34.6487C30.5093 34.2823 31.2841 33.8609 32.0198 33.3902C35.2057 31.3439 37.6456 28.3431 39.0116 24.7312C39.172 24.3069 39.3094 23.8797 39.4366 23.4495C40.0596 21.3424 40.2879 19.17 40.1174 17.0208C40.0942 16.7341 40.0639 16.4459 40.0278 16.1591C39.9829 15.8087 39.9222 15.4597 39.8557 15.1106C39.769 14.6544 39.6635 14.2011 39.5406 13.7507C39.2963 12.8586 38.9841 11.9796 38.5967 11.1208C38.2108 10.262 37.7598 9.4437 37.2553 8.67034C37.0009 8.27932 36.7306 7.89988 36.4473 7.53203C36.2305 7.25108 36.0093 6.97446 35.7781 6.70944C35.5887 6.4922 35.3936 6.27931 35.1941 6.07077C33.7009 4.51826 31.9259 3.24961 29.9384 2.3213C29.5322 2.13158 29.1217 1.952 28.6981 1.79124C25.0946 0.422665 21.2337 0.263359 17.5926 1.29884C16.7528 1.5378 15.9245 1.84048 15.1136 2.20544C14.8433 2.32709 14.5773 2.45453 14.3157 2.58922C14.2232 2.63701 14.1336 2.68915 14.0425 2.73839C13.8748 2.82818 13.7071 2.91507 13.5438 3.00921C13.3978 3.0932 13.2562 3.18299 13.1131 3.27134C13.0075 3.33506 12.9006 3.39733 12.7979 3.4625C12.6447 3.56098 12.4958 3.66526 12.347 3.76808C12.2573 3.82891 12.1648 3.88828 12.0767 3.95056C11.9278 4.05773 11.7832 4.16924 11.6372 4.28075C11.5534 4.34448 11.4667 4.4053 11.3843 4.47192C11.2412 4.58488 11.1039 4.70364 10.9651 4.8195C10.8827 4.88901 10.7989 4.95418 10.7179 5.02515C10.5864 5.13955 10.4606 5.25976 10.332 5.37851C10.2481 5.45527 10.1628 5.53058 10.0805 5.60878C9.96048 5.72464 9.84629 5.84484 9.73065 5.9636C9.64537 6.05049 9.5572 6.13449 9.4748 6.22283C9.36639 6.33724 9.26521 6.456 9.15969 6.57475C9.07296 6.67178 8.98335 6.76737 8.89806 6.8673C8.80266 6.98026 8.7116 7.09756 8.61764 7.21197C8.52947 7.32059 8.4384 7.42776 8.35312 7.53927C8.26784 7.65079 8.18833 7.7652 8.1045 7.87816C8.01632 7.99836 7.9267 8.11567 7.84142 8.23877C7.76626 8.34739 7.69543 8.46035 7.62171 8.57186C7.53498 8.7022 7.44681 8.8311 7.36297 8.96433C7.29648 9.0715 7.23432 9.18302 7.16783 9.29308C7.08399 9.43356 6.99871 9.57259 6.91921 9.71452C6.85705 9.82603 6.80068 9.94044 6.73997 10.0534C6.66336 10.1982 6.58386 10.3416 6.51159 10.4893C6.45232 10.6095 6.39884 10.7326 6.34247 10.8528C6.27453 10.9977 6.20515 11.1396 6.14154 11.2859C6.08373 11.4191 6.03169 11.5567 5.97532 11.6914C5.92183 11.8246 5.86401 11.9549 5.81342 12.0896L5.80041 12.1229V12.1258L5.59082 12.6733H5.5966L14.7725 16.3445L14.9878 15.7479C15.0182 15.6639 15.0514 15.5813 15.0847 15.4988C15.1136 15.4278 15.1411 15.3583 15.1714 15.2888C15.1916 15.241 15.2133 15.1946 15.235 15.1468C15.2697 15.0715 15.3044 14.9962 15.3405 14.9209C15.3593 14.8833 15.3796 14.8456 15.3984 14.8065C15.4403 14.7254 15.4822 14.6443 15.5256 14.5646C15.5415 14.5357 15.5574 14.5082 15.5747 14.4792C15.6238 14.3923 15.6744 14.3069 15.7279 14.2214C15.7395 14.2026 15.7525 14.1823 15.7655 14.1635C15.8233 14.0722 15.8826 13.981 15.9447 13.8927C15.9534 13.8811 15.9606 13.8695 15.9693 13.8579C16.0358 13.7623 16.1052 13.6696 16.1746 13.577C16.1789 13.5712 16.1832 13.5668 16.1876 13.561C16.2627 13.464 16.3394 13.3699 16.4189 13.2757C16.4189 13.2757 16.4203 13.2743 16.4217 13.2728C16.7528 12.8861 17.1199 12.5328 17.5203 12.2156C17.62 12.1374 17.7212 12.0607 17.8239 11.9882C17.8325 11.9824 17.8426 11.9767 17.8513 11.9694C17.9467 11.9013 18.0436 11.8362 18.1419 11.7725C18.1606 11.7594 18.1809 11.7493 18.2011 11.7363C18.2907 11.6798 18.3804 11.6247 18.4729 11.5712C18.5119 11.548 18.5524 11.5277 18.5928 11.506C18.6666 11.4654 18.7403 11.4234 18.8154 11.3858C18.908 11.338 19.0034 11.2931 19.0988 11.2496C19.1233 11.2381 19.1465 11.2265 19.1696 11.2149C23.136 9.42487 27.8164 11.2019 29.603 15.1758C31.3896 19.1497 29.616 23.8391 25.6496 25.6291C25.6251 25.6407 25.6005 25.6494 25.5759 25.6595C25.4791 25.7015 25.3837 25.7435 25.2854 25.7812C25.2059 25.8116 25.1264 25.8406 25.0483 25.8681C25.005 25.884 24.963 25.9 24.9197 25.9144C24.8199 25.9477 24.7188 25.9796 24.6176 26.0086C24.5959 26.0144 24.5742 26.0231 24.5511 26.0288C24.4383 26.0607 24.3256 26.0897 24.2114 26.1172C24.2013 26.1201 24.1897 26.123 24.1796 26.1259C24.0567 26.1548 23.9324 26.1795 23.8081 26.2026C23.3065 26.2939 22.7992 26.3344 22.2904 26.3257H22.2875C22.1661 26.3243 22.0432 26.3185 21.9218 26.3098C21.9145 26.3098 21.9088 26.3098 21.9015 26.3098C21.7859 26.3026 21.6703 26.291 21.5561 26.2779C21.5416 26.2765 21.5286 26.275 21.5141 26.2736C21.4072 26.2606 21.3002 26.2461 21.1933 26.2287C21.1701 26.2244 21.1484 26.2215 21.1253 26.2186C21.027 26.2026 20.9287 26.1824 20.8319 26.1621C20.8001 26.1548 20.7683 26.1491 20.735 26.1418C20.6469 26.123 20.5587 26.0998 20.4705 26.0781C20.43 26.068 20.3881 26.0578 20.3476 26.0462C20.2681 26.0245 20.1886 25.9999 20.1091 25.9767C20.06 25.9622 20.0109 25.9463 19.9617 25.9304C19.8894 25.9072 19.8186 25.8811 19.7463 25.8551C19.6625 25.8246 19.5787 25.7957 19.4963 25.7624L18.908 25.5278L15.5704 34.8442L15.5689 34.8486ZM20.1641 32.207L20.975 30.0636C20.9981 30.0665 21.0227 30.0665 21.0458 30.0694C21.2612 30.0955 21.478 30.1158 21.6934 30.1288C21.7801 30.1346 21.8683 30.136 21.955 30.1404C22.1025 30.1462 22.2484 30.1505 22.3944 30.1505C22.4913 30.1505 22.5867 30.1505 22.6835 30.1491C22.8555 30.1447 23.0261 30.1375 23.1981 30.1259C23.2964 30.1187 23.3933 30.1114 23.4916 30.1027C23.6693 30.0868 23.8471 30.0665 24.0235 30.0405C24.1131 30.0274 24.2027 30.0129 24.2909 29.9985C24.4485 29.9724 24.6046 29.9434 24.7607 29.9116C24.8358 29.8956 24.9096 29.8826 24.9847 29.8652C25.2044 29.8145 25.4241 29.758 25.6424 29.6958C25.7046 29.6769 25.7667 29.6567 25.8303 29.6378C26.0023 29.5843 26.1743 29.5278 26.3449 29.467C26.4128 29.4423 26.4808 29.4177 26.5487 29.3916C26.7699 29.3076 26.9896 29.2193 27.2064 29.1208C27.2093 29.1208 27.2122 29.1179 27.2165 29.1165C33.1011 26.4619 35.7318 19.506 33.0808 13.6103C30.4313 7.71451 23.4887 5.08018 17.6041 7.73479C17.6012 7.73479 17.5984 7.73768 17.5955 7.73913C17.3786 7.83761 17.1676 7.94333 16.958 8.0534C16.8944 8.08671 16.8308 8.12146 16.7672 8.15767C16.6082 8.24456 16.4521 8.3358 16.2989 8.42994C16.2425 8.46469 16.1861 8.49656 16.1312 8.53131C15.939 8.65296 15.7525 8.78041 15.5689 8.9122C15.5068 8.95709 15.4475 9.00344 15.3868 9.04978C15.2596 9.14536 15.1338 9.24384 15.0095 9.34522C14.9401 9.4017 14.8693 9.45963 14.8014 9.51756C14.6655 9.63342 14.5325 9.75362 14.4024 9.87672C14.3316 9.94334 14.2608 10.0114 14.1914 10.0809C14.0685 10.2026 13.9485 10.3257 13.8315 10.4517C13.7664 10.5226 13.7028 10.595 13.6392 10.6675C13.5424 10.7775 13.4484 10.8905 13.3545 11.0049C13.2995 11.073 13.2432 11.1396 13.1897 11.2091C13.0567 11.38 12.928 11.5552 12.8052 11.7348C12.7922 11.7536 12.7763 11.7725 12.7633 11.7913L10.624 10.9788C10.6659 10.9122 10.7063 10.847 10.7483 10.7819C10.7844 10.7268 10.8191 10.6704 10.8567 10.6168C10.9405 10.4908 11.0287 10.3662 11.1169 10.2431C11.1357 10.2171 11.1544 10.1895 11.1732 10.162C11.286 10.0071 11.4016 9.855 11.5216 9.70438C11.5317 9.69135 11.5433 9.67831 11.5534 9.66528C11.6604 9.53204 11.7702 9.40025 11.8815 9.26991C11.9104 9.2366 11.9408 9.20329 11.9697 9.16998C12.0651 9.06137 12.1619 8.9542 12.2617 8.84848C12.2964 8.81227 12.3311 8.77606 12.3657 8.73841C12.464 8.63559 12.5638 8.53421 12.665 8.43573C12.6997 8.40242 12.7329 8.36911 12.7676 8.3358C12.8789 8.23008 12.9916 8.12581 13.1058 8.02298C13.1318 7.99981 13.1564 7.97664 13.1824 7.95347C13.4701 7.69858 13.7679 7.45673 14.0772 7.22646C14.0974 7.21053 14.1191 7.19604 14.1393 7.18156C14.268 7.08598 14.3995 6.99329 14.5325 6.90205C14.5773 6.87164 14.6221 6.84268 14.6669 6.81226C14.7782 6.7384 14.891 6.66454 15.0052 6.59358C15.0587 6.56027 15.1121 6.52696 15.1656 6.4951C15.2755 6.42848 15.3868 6.36331 15.4981 6.29959C15.553 6.26773 15.6079 6.23587 15.6643 6.20545C15.7828 6.14028 15.9043 6.07656 16.0242 6.01429C16.0734 5.98967 16.1211 5.9636 16.1688 5.93898C16.3394 5.85353 16.5114 5.77098 16.6863 5.69133C23.6968 2.52839 31.9692 5.66816 35.1262 12.6921C38.2831 19.716 35.1493 28.0042 28.1387 31.1672C27.9638 31.2454 27.7875 31.3207 27.6111 31.3917C27.5606 31.4119 27.51 31.4308 27.4579 31.451C27.3307 31.5003 27.2035 31.5495 27.0763 31.5944C27.0171 31.6161 26.9563 31.6364 26.8956 31.6567C26.7742 31.6987 26.6514 31.7378 26.5299 31.7769C26.4707 31.7957 26.41 31.8145 26.3492 31.8319C26.2206 31.8696 26.0905 31.9058 25.9619 31.9405C25.9098 31.955 25.8578 31.968 25.8058 31.9811C25.6496 32.0202 25.4935 32.0564 25.336 32.0911C25.3114 32.0969 25.2854 32.1027 25.2608 32.1085C24.8835 32.1882 24.5048 32.2505 24.1247 32.2982C24.09 32.3026 24.0553 32.3055 24.0206 32.3098C23.8688 32.3272 23.7156 32.3431 23.5638 32.3562C23.5161 32.3605 23.4684 32.3634 23.4193 32.3663C23.2776 32.3764 23.136 32.3851 22.9958 32.3909C22.9452 32.3924 22.8946 32.3953 22.844 32.3967C22.6994 32.4011 22.5563 32.4025 22.4118 32.4025C22.367 32.4025 22.3222 32.4025 22.2774 32.4025C22.1068 32.4011 21.9362 32.3953 21.7657 32.3866C21.7483 32.3866 21.7324 32.3866 21.7151 32.3851C21.5243 32.375 21.3335 32.3605 21.1427 32.3431C21.1094 32.3402 21.0762 32.3359 21.0429 32.3316C20.8926 32.3171 20.7423 32.2997 20.5934 32.2794C20.5283 32.2707 20.4633 32.2606 20.3982 32.2505C20.3216 32.2389 20.245 32.2258 20.1684 32.2128L20.1641 32.207Z" fill="white"/>
<path d="M7.7472 23.8037L7.58098 23.9239C6.37834 24.79 4.21013 26.4033 3.20264 27.4706C0.674506 30.1513 0.437449 33.0014 0.595006 34.929C0.780026 37.1854 2.2573 38.5308 2.37149 38.5597L2.13443 37.6025C1.90894 36.6901 1.9523 35.6836 2.26308 34.6104C3.18385 31.433 5.2422 29.1462 8.93972 27.194L9.11462 27.1013L9.4254 24.4713L7.7472 23.8037Z" fill="white"/>
<path d="M5.17869 20.5527L3.61035 20.9944L10.3694 23.872L9.62785 32.4818L11.0762 30.6295C11.3032 30.3384 11.4983 30.0256 11.6602 29.6925L15.5832 21.5867L7.30642 20.4108C6.59525 20.3094 5.87107 20.3586 5.17869 20.5527Z" fill="white"/>
<path d="M25.1439 18.2842C24.1349 16.7925 22.1806 16.3146 20.5906 17.1763C20.1859 17.3964 16.9986 19.0155 14.7639 20.0785L13.6538 20.6071L16.6561 21.059L15.426 24.0829L16.3511 23.576C17.5522 22.9185 19.0671 22.093 20.5198 21.3023C22.4076 20.274 24.1913 19.3037 25.0268 18.8403L25.4142 18.6216L25.1453 18.2856L25.1439 18.2842Z" fill="white"/>
</svg>
