<svg width="93" height="71" viewBox="0 0 93 71" fill="none" xmlns="http://www.w3.org/2000/svg">
<path d="M39.203 35.6432L39.2 35.6492L39.7691 35.8649C39.7691 35.8649 39.7706 35.8649 39.7721 35.8649L39.8067 35.8785C39.9467 35.9313 40.0882 35.9765 40.2282 36.0263C40.3712 36.076 40.5142 36.1303 40.6572 36.1771C40.8153 36.2284 40.9749 36.2721 41.1344 36.3189C41.2684 36.3581 41.4009 36.4018 41.5349 36.438C41.7005 36.4833 41.8661 36.5195 42.0317 36.5602C42.1611 36.5919 42.2891 36.6266 42.4185 36.6537C42.5841 36.6899 42.7527 36.7186 42.9183 36.7502C43.0478 36.7744 43.1788 36.803 43.3082 36.8257C43.4693 36.8528 43.6304 36.8724 43.793 36.895C43.93 36.9146 44.0669 36.9373 44.2039 36.9539C44.3575 36.972 44.5125 36.9825 44.6661 36.9976C44.8106 37.0112 44.9566 37.0278 45.1011 37.0383C45.2472 37.0489 45.3917 37.0504 45.5377 37.0579C45.6913 37.064 45.8463 37.0745 45.9999 37.0775C46.1353 37.0805 46.2723 37.076 46.4078 37.0745C46.5719 37.0745 46.7345 37.076 46.8986 37.0715C47.025 37.067 47.1515 37.0564 47.2779 37.0504C47.4511 37.0413 47.6242 37.0353 47.7958 37.0217C47.9132 37.0127 48.0306 36.9961 48.1496 36.984C48.3302 36.9659 48.5109 36.9508 48.69 36.9267C48.7999 36.9116 48.9098 36.892 49.0197 36.8754C49.2063 36.8468 49.393 36.8211 49.5797 36.7879C49.6881 36.7683 49.7949 36.7427 49.9033 36.7216C50.09 36.6839 50.2782 36.6492 50.4633 36.6054C50.5732 36.5798 50.6816 36.5481 50.7915 36.521C50.9752 36.4742 51.1588 36.4305 51.341 36.3792C51.4644 36.3445 51.5849 36.3023 51.7083 36.2646C51.8754 36.2133 52.044 36.165 52.2096 36.1092C52.3963 36.0459 52.5799 35.975 52.7651 35.9056C52.8659 35.8679 52.9683 35.8332 53.0692 35.794C53.3537 35.6824 53.6367 35.5617 53.9182 35.435C54.7627 35.0534 55.5696 34.6145 56.3359 34.1244C59.6537 31.9932 62.1948 28.8681 63.6174 25.1065C63.7845 24.6645 63.9275 24.2196 64.06 23.7716C64.7088 21.5771 64.9467 19.3147 64.769 17.0765C64.745 16.7778 64.7133 16.4777 64.6757 16.1791C64.629 15.8141 64.5658 15.4506 64.4966 15.0871C64.4062 14.612 64.2964 14.1399 64.1684 13.6708C63.914 12.7417 63.5888 11.8262 63.1854 10.9318C62.7834 10.0374 62.3138 9.18524 61.7884 8.37983C61.5234 7.9726 61.2419 7.57744 60.9469 7.19434C60.7211 6.90173 60.4907 6.61366 60.2499 6.33765C60.0527 6.11141 59.8494 5.88969 59.6417 5.6725C58.0866 4.05564 56.238 2.73441 54.1681 1.76761C53.7451 1.57003 53.3176 1.383 52.8765 1.21559C49.1235 -0.20972 45.1027 -0.375629 41.3106 0.702779C40.436 0.951642 39.5734 1.26687 38.7288 1.64695C38.4473 1.77364 38.1703 1.90637 37.8979 2.04664C37.8015 2.09641 37.7082 2.15071 37.6133 2.20199C37.4387 2.2955 37.2641 2.386 37.094 2.48404C36.9419 2.57152 36.7944 2.66503 36.6454 2.75703C36.5355 2.8234 36.4241 2.88825 36.3172 2.95612C36.1576 3.05868 36.0026 3.16728 35.8475 3.27437C35.7542 3.33771 35.6578 3.39955 35.566 3.46441C35.411 3.57602 35.2604 3.69215 35.1084 3.80829C35.0211 3.87465 34.9307 3.938 34.8449 4.00738C34.6959 4.12502 34.5529 4.2487 34.4084 4.36936C34.3226 4.44176 34.2353 4.50963 34.151 4.58354C34.014 4.70269 33.883 4.82788 33.749 4.95155C33.6617 5.03149 33.5729 5.10992 33.4871 5.19137C33.3621 5.31203 33.2432 5.43721 33.1228 5.56089C33.034 5.65139 32.9421 5.73886 32.8563 5.83087C32.7434 5.95002 32.638 6.0737 32.5281 6.19738C32.4378 6.29843 32.3445 6.39798 32.2557 6.50205C32.1563 6.61969 32.0615 6.74186 31.9636 6.86101C31.8718 6.97413 31.777 7.08574 31.6881 7.20188C31.5993 7.31802 31.5165 7.43717 31.4292 7.55481C31.3374 7.68 31.244 7.80217 31.1552 7.93037C31.0769 8.04349 31.0032 8.16113 30.9264 8.27727C30.8361 8.41301 30.7443 8.54725 30.6569 8.68601C30.5877 8.79762 30.523 8.91376 30.4537 9.02838C30.3664 9.17469 30.2776 9.31948 30.1948 9.46729C30.1301 9.58342 30.0713 9.70258 30.0081 9.82022C29.9283 9.97105 29.8455 10.1204 29.7703 10.2742C29.7086 10.3994 29.6529 10.5276 29.5941 10.6528C29.5234 10.8036 29.4511 10.9514 29.3849 11.1038C29.3247 11.2425 29.2705 11.3858 29.2118 11.5261C29.1561 11.6648 29.0959 11.8006 29.0432 11.9408L29.0296 11.9755V11.9785L28.8113 12.5487H28.8174L38.3736 16.3721L38.5979 15.7507C38.6295 15.6632 38.6641 15.5773 38.6987 15.4913C38.7288 15.4174 38.7574 15.345 38.7891 15.2726C38.8101 15.2228 38.8327 15.1746 38.8553 15.1248C38.8914 15.0463 38.9276 14.9679 38.9652 14.8895C38.9848 14.8503 39.0058 14.8111 39.0254 14.7703C39.0691 14.6859 39.1127 14.6014 39.1579 14.5185C39.1744 14.4883 39.191 14.4596 39.2091 14.4295C39.2602 14.339 39.3129 14.25 39.3686 14.161C39.3807 14.1414 39.3942 14.1203 39.4078 14.1007C39.468 14.0056 39.5297 13.9106 39.5944 13.8186C39.6035 13.8066 39.611 13.7945 39.62 13.7824C39.6893 13.6829 39.7615 13.5864 39.8338 13.4898C39.8383 13.4838 39.8428 13.4793 39.8473 13.4732C39.9256 13.3722 40.0054 13.2741 40.0882 13.1761C40.0882 13.1761 40.0897 13.1746 40.0912 13.1731C40.4359 12.7704 40.8183 12.4024 41.2353 12.0721C41.3392 11.9906 41.4446 11.9107 41.5514 11.8353C41.5605 11.8292 41.571 11.8232 41.58 11.8157C41.6794 11.7448 41.7803 11.6769 41.8826 11.6105C41.9022 11.597 41.9233 11.5864 41.9443 11.5728C42.0377 11.514 42.131 11.4567 42.2274 11.4009C42.268 11.3767 42.3102 11.3556 42.3523 11.333C42.4291 11.2908 42.5059 11.247 42.5841 11.2078C42.6805 11.158 42.7798 11.1113 42.8792 11.066C42.9048 11.054 42.9289 11.0419 42.953 11.0298C47.0837 9.16564 51.9582 11.0163 53.8189 15.1549C55.6795 19.2936 53.8324 24.1774 49.7016 26.0416C49.676 26.0536 49.6504 26.0627 49.6248 26.0733C49.524 26.117 49.4246 26.1607 49.3223 26.1999C49.2395 26.2316 49.1567 26.2618 49.0754 26.2904C49.0302 26.307 48.9866 26.3236 48.9414 26.3387C48.8375 26.3734 48.7321 26.4066 48.6268 26.4367C48.6042 26.4428 48.5816 26.4518 48.5575 26.4579C48.4401 26.491 48.3227 26.5212 48.2038 26.5499C48.1932 26.5529 48.1812 26.5559 48.1706 26.5589C48.0427 26.5891 47.9132 26.6147 47.7838 26.6388C47.2614 26.7339 46.733 26.7761 46.2031 26.7671H46.2001C46.0736 26.7655 45.9457 26.7595 45.8192 26.7505C45.8117 26.7505 45.8057 26.7505 45.7981 26.7505C45.6777 26.7429 45.5573 26.7309 45.4384 26.7173C45.4233 26.7158 45.4098 26.7143 45.3947 26.7128C45.2833 26.6992 45.1719 26.6841 45.0605 26.666C45.0364 26.6615 45.0138 26.6585 44.9897 26.6554C44.8874 26.6388 44.785 26.6177 44.6842 26.5966C44.651 26.5891 44.6179 26.583 44.5833 26.5755C44.4915 26.5559 44.3996 26.5318 44.3078 26.5091C44.2657 26.4986 44.222 26.488 44.1799 26.476C44.0971 26.4533 44.0143 26.4277 43.9315 26.4036C43.8803 26.3885 43.8291 26.3719 43.7779 26.3553C43.7026 26.3312 43.6289 26.304 43.5536 26.2769C43.4663 26.2452 43.379 26.215 43.2932 26.1803L42.6805 25.936L39.2045 35.6386L39.203 35.6432ZM43.9887 32.8921L44.8332 30.6599C44.8573 30.6629 44.8829 30.6629 44.907 30.6659C45.1313 30.6931 45.3571 30.7142 45.5814 30.7277C45.6717 30.7338 45.7635 30.7353 45.8538 30.7398C46.0074 30.7458 46.1594 30.7504 46.3115 30.7504C46.4123 30.7504 46.5117 30.7504 46.6126 30.7489C46.7917 30.7443 46.9693 30.7368 47.1485 30.7247C47.2508 30.7172 47.3517 30.7097 47.4541 30.7006C47.6392 30.684 47.8244 30.6629 48.0081 30.6357C48.1014 30.6222 48.1947 30.6071 48.2866 30.592C48.4506 30.5649 48.6132 30.5347 48.7758 30.5015C48.8541 30.4849 48.9309 30.4713 49.0091 30.4532C49.238 30.4005 49.4668 30.3416 49.6941 30.2768C49.7588 30.2572 49.8236 30.2361 49.8898 30.2164C50.0689 30.1606 50.2481 30.1018 50.4257 30.0385C50.4965 30.0128 50.5672 29.9872 50.638 29.96C50.8683 29.8726 51.0971 29.7806 51.3229 29.678C51.3259 29.678 51.3289 29.675 51.3335 29.6735C57.4619 26.9088 60.2017 19.6646 57.4408 13.5245C54.6814 7.38438 47.4511 4.64085 41.3226 7.40549C41.3196 7.40549 41.3166 7.40851 41.3136 7.41002C41.0878 7.51258 40.868 7.62268 40.6497 7.73731C40.5835 7.772 40.5172 7.8082 40.451 7.84591C40.2854 7.9364 40.1228 8.03142 39.9633 8.12946C39.9045 8.16566 39.8458 8.19884 39.7886 8.23504C39.5884 8.36173 39.3942 8.49446 39.203 8.63171C39.1383 8.67847 39.0766 8.72673 39.0134 8.775C38.8809 8.87454 38.7499 8.9771 38.6205 9.08268C38.5482 9.1415 38.4744 9.20183 38.4037 9.26216C38.2622 9.38283 38.1237 9.50801 37.9882 9.63621C37.9144 9.70559 37.8407 9.77648 37.7684 9.84888C37.6404 9.97557 37.5155 10.1038 37.3936 10.235C37.3258 10.3089 37.2596 10.3843 37.1933 10.4597C37.0925 10.5744 36.9946 10.692 36.8968 10.8111C36.8396 10.882 36.7809 10.9514 36.7252 11.0238C36.5867 11.2018 36.4527 11.3843 36.3247 11.5713C36.3112 11.5909 36.2946 11.6105 36.2811 11.6301L34.0531 10.784C34.0968 10.7146 34.1389 10.6467 34.1826 10.5789C34.2202 10.5216 34.2563 10.4627 34.2955 10.4069C34.3828 10.2757 34.4746 10.146 34.5664 10.0178C34.586 9.99065 34.6056 9.962 34.6251 9.93334C34.7426 9.77196 34.863 9.61359 34.9879 9.45673C34.9985 9.44316 35.0105 9.42958 35.0211 9.41601C35.1325 9.27725 35.2469 9.14 35.3628 9.00425C35.3929 8.96956 35.4245 8.93487 35.4546 8.90018C35.554 8.78706 35.6548 8.67545 35.7587 8.56535C35.7948 8.52764 35.831 8.48993 35.8671 8.45072C35.9695 8.34363 36.0733 8.23805 36.1787 8.13549C36.2148 8.1008 36.2495 8.06611 36.2856 8.03142C36.4015 7.92132 36.5189 7.81273 36.6379 7.70564C36.665 7.68151 36.6905 7.65737 36.7176 7.63324C37.0172 7.36779 37.3273 7.11591 37.6495 6.87609C37.6706 6.8595 37.6931 6.84442 37.7142 6.82934C37.8482 6.72979 37.9852 6.63326 38.1237 6.53824C38.1703 6.50657 38.217 6.4764 38.2637 6.44473C38.3796 6.36781 38.497 6.29089 38.6159 6.21698C38.6716 6.18229 38.7273 6.1476 38.783 6.11442C38.8974 6.04504 39.0134 5.97717 39.1293 5.91081C39.1865 5.87762 39.2437 5.84444 39.3024 5.81277C39.4258 5.7449 39.5523 5.67853 39.6772 5.61368C39.7284 5.58804 39.7781 5.56089 39.8278 5.53525C40.0054 5.44626 40.1846 5.36029 40.3667 5.27734C47.6678 1.98329 56.2832 5.2532 59.5709 12.5683C62.8587 19.8833 59.595 28.5151 52.2939 31.8092C52.1117 31.8906 51.9281 31.969 51.7444 32.043C51.6917 32.0641 51.6391 32.0837 51.5849 32.1048C51.4524 32.1561 51.3199 32.2074 51.1874 32.2541C51.1257 32.2767 51.0625 32.2978 50.9993 32.319C50.8728 32.3627 50.7448 32.4034 50.6184 32.4441C50.5567 32.4638 50.4934 32.4834 50.4302 32.5015C50.2962 32.5407 50.1608 32.5784 50.0268 32.6146C49.9726 32.6297 49.9184 32.6432 49.8642 32.6568C49.7016 32.6975 49.539 32.7352 49.3749 32.7714C49.3494 32.7775 49.3223 32.7835 49.2967 32.7895C48.9038 32.8725 48.5093 32.9374 48.1134 32.9871C48.0773 32.9916 48.0412 32.9947 48.005 32.9992C47.847 33.0173 47.6874 33.0339 47.5293 33.0475C47.4797 33.052 47.43 33.055 47.3788 33.058C47.2313 33.0686 47.0837 33.0776 46.9377 33.0837C46.885 33.0852 46.8323 33.0882 46.7797 33.0897C46.6291 33.0942 46.4801 33.0957 46.3295 33.0957C46.2829 33.0957 46.2362 33.0957 46.1895 33.0957C46.0119 33.0942 45.8343 33.0882 45.6566 33.0791C45.6386 33.0791 45.622 33.0791 45.6039 33.0776C45.4052 33.0671 45.2065 33.052 45.0078 33.0339C44.9732 33.0309 44.9386 33.0263 44.9039 33.0218C44.7474 33.0067 44.5908 32.9886 44.4358 32.9675C44.368 32.9585 44.3003 32.9479 44.2325 32.9374C44.1528 32.9253 44.073 32.9117 43.9932 32.8981L43.9887 32.8921Z" fill="#EE5128"/>
<path d="M31.0573 24.1409L30.8841 24.2661C29.6317 25.1681 27.3736 26.8483 26.3243 27.9599C23.6914 30.7516 23.4445 33.7199 23.6086 35.7274C23.8013 38.0773 25.3398 39.4784 25.4587 39.5086L25.2118 38.5116C24.977 37.5614 25.0222 36.5132 25.3458 35.3956C26.3047 32.0865 28.4484 29.7049 32.2992 27.6718L32.4814 27.5752L32.805 24.8362L31.0573 24.1409Z" fill="#EE5128"/>
<path d="M28.3824 20.7554L26.7491 21.2154L33.7883 24.2124L33.016 33.179L34.5244 31.2499C34.7608 30.9467 34.964 30.621 35.1326 30.2741L39.2182 21.8323L30.5984 20.6076C29.8577 20.502 29.1035 20.5533 28.3824 20.7554Z" fill="#EE5128"/>
<path d="M49.1751 18.392C48.1244 16.8385 46.0891 16.3408 44.4332 17.2382C44.0117 17.4675 40.6923 19.1537 38.3649 20.2608L37.2088 20.8113L40.3355 21.2819L39.0544 24.4311L40.0179 23.9032C41.2688 23.2185 42.8465 22.3588 44.3594 21.5353C46.3254 20.4644 48.1831 19.4539 49.0532 18.9712L49.4566 18.7435L49.1766 18.3936L49.1751 18.392Z" fill="#EE5128"/>
<path d="M23.9517 63.7024C23.7666 64.3208 23.5513 64.5365 22.6872 64.5365H18.3065C17.4123 64.5365 17.1956 64.2891 17.0104 63.6707L14.8818 56.686L12.7531 63.6707C12.568 64.3193 12.3527 64.5048 11.4886 64.5048H7.50988C6.64579 64.5048 6.43052 64.2891 6.21374 63.6391L-0.0772772 42.9336C-0.385882 41.9442 0.231327 41.9141 1.06381 41.9141H4.82728C5.56793 41.9141 5.59804 42.0679 5.81481 42.718L10.349 57.8926L12.6628 50.1356L10.5041 42.9352C10.1955 41.9457 10.7811 41.9156 11.6151 41.9156H15.4087C16.1177 41.9156 16.1794 42.0694 16.3646 42.7195L20.9304 57.8941L25.4646 42.7496C25.6498 42.1011 25.6799 41.9457 26.3588 41.9457H29.1348C29.9989 41.9457 30.5544 42.0076 30.3075 42.7798L23.9532 63.7039L23.9517 63.7024Z" fill="#EE5128"/>
<path d="M74.7178 64.589H71.3864C70.4922 64.589 70.3687 64.4367 70.3687 63.5513V42.7675C70.3687 42.2487 70.584 41.9123 71.2012 41.9123H74.5025C75.5518 41.9123 75.6135 42.2487 75.6135 42.9198V63.3372C75.6135 64.1305 75.6135 64.589 74.7193 64.589H74.7178Z" fill="#EE5128"/>
<path d="M83.8968 69.6943C83.6499 70.281 83.2179 70.7139 82.6624 70.7139H80.0099C79.2075 70.7139 79.0224 70.4047 79.2693 69.7863L81.428 64.3158L75.4742 48.8003C75.2273 48.1819 75.5043 47.9044 76.2765 47.9044H80.04C80.5639 47.9044 80.9959 48.3991 81.1811 48.924L84.2039 57.5166L87.4119 48.924C87.5971 48.4293 88.0592 47.9044 88.5846 47.9044H91.484C92.3782 47.9044 92.5016 48.1819 92.2246 48.8622L83.8953 69.6928L83.8968 69.6943Z" fill="#EE5128"/>
<path d="M40.6181 57.611H31.9184C31.9184 59.8055 33.4298 61.0724 36.144 61.0724C38.6731 61.0724 40.5864 60.6712 41.1103 60.5777C41.6658 60.4541 42.0045 60.6697 42.0045 61.0724V63.359C42.0045 64.0694 41.7893 64.3484 40.9869 64.5339C40.5247 64.6576 37.4086 64.9668 35.5886 64.9668C28.9257 64.9668 26.6736 61.6592 26.6736 56.344C26.6736 50.1933 29.1726 47.3819 34.7245 47.3819C39.8458 47.3819 42.2514 49.9158 42.2514 53.7182V56.1284C42.2514 57.1796 42.1596 57.6125 40.6166 57.6125L40.6181 57.611ZM34.6025 50.6262C32.7208 50.6262 32.0735 52.2959 32.0419 53.7166C32.0419 54.1495 32.0118 54.4587 32.4423 54.4587H36.6062C36.9148 54.4587 36.9449 54.1812 36.9449 53.7483C36.9148 52.1103 36.4828 50.6262 34.601 50.6262H34.6025Z" fill="#EE5128"/>
<path d="M56.1005 57.611H47.4008C47.4008 59.8055 48.9123 61.0724 51.6265 61.0724C54.1555 61.0724 56.0689 60.6712 56.5927 60.5777C57.1482 60.4541 57.4869 60.6697 57.4869 61.0724V63.359C57.4869 64.0694 57.2717 64.3484 56.4693 64.5339C56.0071 64.6576 52.891 64.9668 51.071 64.9668C44.4081 64.9668 42.1561 61.6592 42.1561 56.344C42.1561 50.1933 44.655 47.3819 50.2069 47.3819C55.3282 47.3819 57.7338 49.9158 57.7338 53.7182V56.1284C57.7338 57.1796 57.642 57.6125 56.099 57.6125L56.1005 57.611ZM50.0849 50.6262C48.2032 50.6262 47.5559 52.2959 47.5243 53.7166C47.5243 54.1495 47.4942 54.4587 47.9247 54.4587H52.0886C52.3972 54.4587 52.4273 54.1812 52.4273 53.7483C52.3972 52.1103 51.9652 50.6262 50.0834 50.6262H50.0849Z" fill="#EE5128"/>
<path d="M69.9744 46.2098H63.6819C63.003 46.2098 62.8795 46.4571 62.8795 46.7045V50.5672C62.8795 51.092 63.1565 51.2775 63.5585 51.2775H67.6983C68.5624 51.2775 68.7159 51.5867 68.6542 51.9879L68.5007 54.831C68.3471 55.7269 67.483 55.6651 67.0194 55.6651H63.7421C63.2182 55.6651 62.9397 55.9426 62.9397 56.4071V63.7931C62.9397 64.318 62.6628 64.5352 62.3542 64.5352H58.2204C57.8199 64.5352 57.3563 64.3195 57.3563 63.5457V42.9308C57.3563 42.3441 57.3864 41.9112 58.0653 41.9112H70.3734C71.114 41.9112 71.2058 42.2204 71.2058 42.5915V45.2807C71.2058 46.0529 70.8671 46.2083 69.9714 46.2083L69.9744 46.2098Z" fill="#EE5128"/>
</svg>
