<svg width="93" height="71" viewBox="0 0 93 71" fill="none" xmlns="http://www.w3.org/2000/svg">
<path d="M39.2032 35.6431L39.2002 35.6491L39.7692 35.8648C39.7692 35.8648 39.7708 35.8648 39.7723 35.8648L39.8069 35.8784C39.9469 35.9311 40.0884 35.9764 40.2284 36.0262C40.3714 36.0759 40.5144 36.1302 40.6574 36.177C40.8155 36.2283 40.9751 36.272 41.1346 36.3188C41.2686 36.358 41.4011 36.4017 41.5351 36.4379C41.7007 36.4832 41.8663 36.5194 42.0318 36.5601C42.1613 36.5918 42.2893 36.6265 42.4187 36.6536C42.5843 36.6898 42.7529 36.7185 42.9185 36.7501C43.048 36.7743 43.1789 36.8029 43.3084 36.8255C43.4695 36.8527 43.6306 36.8723 43.7931 36.8949C43.9301 36.9145 44.0671 36.9372 44.2041 36.9537C44.3577 36.9718 44.5127 36.9824 44.6663 36.9975C44.8108 37.0111 44.9568 37.0277 45.1013 37.0382C45.2474 37.0488 45.3919 37.0503 45.5379 37.0578C45.6914 37.0639 45.8465 37.0744 46 37.0774C46.1355 37.0804 46.2725 37.0759 46.408 37.0744C46.5721 37.0744 46.7347 37.0759 46.8988 37.0714C47.0252 37.0669 47.1517 37.0563 47.2781 37.0503C47.4512 37.0412 47.6244 37.0352 47.796 37.0216C47.9134 37.0126 48.0308 36.996 48.1497 36.9839C48.3304 36.9658 48.511 36.9507 48.6902 36.9266C48.8001 36.9115 48.91 36.8919 49.0199 36.8753C49.2065 36.8467 49.3932 36.821 49.5799 36.7878C49.6882 36.7682 49.7951 36.7426 49.9035 36.7215C50.0902 36.6838 50.2784 36.6491 50.4635 36.6053C50.5734 36.5797 50.6818 36.548 50.7917 36.5209C50.9754 36.4741 51.159 36.4304 51.3412 36.3791C51.4646 36.3444 51.585 36.3022 51.7085 36.2645C51.8756 36.2132 52.0442 36.1649 52.2098 36.1091C52.3964 36.0458 52.5801 35.9749 52.7653 35.9055C52.8661 35.8678 52.9685 35.8331 53.0694 35.7939C53.3539 35.6823 53.6369 35.5616 53.9184 35.4349C54.7629 35.0533 55.5698 34.6144 56.336 34.1242C59.6539 31.9931 62.195 28.868 63.6176 25.1063C63.7847 24.6644 63.9277 24.2195 64.0602 23.7715C64.709 21.577 64.9469 19.3146 64.7692 17.0764C64.7451 16.7777 64.7135 16.4776 64.6759 16.1789C64.6292 15.8139 64.566 15.4505 64.4968 15.087C64.4064 14.6119 64.2965 14.1398 64.1686 13.6707C63.9142 12.7416 63.589 11.8261 63.1856 10.9317C62.7836 10.0373 62.3139 9.18514 61.7886 8.37972C61.5236 7.97249 61.2421 7.57733 60.9471 7.19423C60.7212 6.90163 60.4909 6.61355 60.2501 6.33754C60.0529 6.1113 59.8496 5.88958 59.6419 5.67239C58.0868 4.05554 56.2382 2.7343 54.1683 1.7675C53.7453 1.56992 53.3177 1.3829 52.8767 1.21548C49.1237 -0.209826 45.1028 -0.375735 41.3108 0.702672C40.4361 0.951535 39.5735 1.26676 38.729 1.64684C38.4475 1.77354 38.1705 1.90626 37.898 2.04653C37.8017 2.09631 37.7084 2.1506 37.6135 2.20188C37.4389 2.2954 37.2643 2.38589 37.0942 2.48393C36.9421 2.57141 36.7946 2.66492 36.6456 2.75692C36.5357 2.82329 36.4243 2.88814 36.3174 2.95602C36.1578 3.05858 36.0028 3.16717 35.8477 3.27426C35.7544 3.33761 35.658 3.39944 35.5662 3.4643C35.4111 3.57591 35.2606 3.69205 35.1086 3.80818C35.0213 3.87455 34.9309 3.93789 34.8451 4.00727C34.6961 4.12492 34.5531 4.2486 34.4086 4.36926C34.3227 4.44165 34.2354 4.50952 34.1511 4.58343C34.0141 4.70258 33.8832 4.82777 33.7492 4.95145C33.6619 5.03138 33.5731 5.10981 33.4873 5.19126C33.3623 5.31192 33.2434 5.43711 33.123 5.56078C33.0341 5.65128 32.9423 5.73876 32.8565 5.83076C32.7436 5.94991 32.6382 6.07359 32.5283 6.19727C32.438 6.29832 32.3447 6.39787 32.2559 6.50194C32.1565 6.61958 32.0617 6.74175 31.9638 6.86091C31.872 6.97402 31.7771 7.08564 31.6883 7.20177C31.5995 7.31791 31.5167 7.43706 31.4294 7.55471C31.3376 7.67989 31.2442 7.80206 31.1554 7.93026C31.0771 8.04338 31.0034 8.16103 30.9266 8.27716C30.8363 8.41291 30.7444 8.54714 30.6571 8.6859C30.5879 8.79751 30.5232 8.91365 30.4539 9.02828C30.3666 9.17458 30.2778 9.31937 30.195 9.46718C30.1302 9.58332 30.0715 9.70247 30.0083 9.82012C29.9285 9.97094 29.8457 10.1203 29.7705 10.2741C29.7087 10.3993 29.653 10.5275 29.5943 10.6527C29.5236 10.8035 29.4513 10.9513 29.3851 11.1036C29.3249 11.2424 29.2707 11.3857 29.212 11.526C29.1563 11.6647 29.096 11.8005 29.0434 11.9407L29.0298 11.9754V11.9784L28.8115 12.5486H28.8175L38.3738 16.372L38.5981 15.7506C38.6297 15.6631 38.6643 15.5772 38.6989 15.4912C38.729 15.4173 38.7576 15.3449 38.7892 15.2725C38.8103 15.2227 38.8329 15.1744 38.8555 15.1247C38.8916 15.0462 38.9277 14.9678 38.9654 14.8894C38.9849 14.8502 39.006 14.811 39.0256 14.7702C39.0692 14.6858 39.1129 14.6013 39.1581 14.5184C39.1746 14.4882 39.1912 14.4595 39.2092 14.4294C39.2604 14.3389 39.3131 14.2499 39.3688 14.1609C39.3809 14.1413 39.3944 14.1202 39.408 14.1006C39.4682 14.0055 39.5299 13.9105 39.5946 13.8185C39.6037 13.8065 39.6112 13.7944 39.6202 13.7823C39.6895 13.6828 39.7617 13.5862 39.834 13.4897C39.8385 13.4837 39.843 13.4792 39.8475 13.4731C39.9258 13.3721 40.0056 13.274 40.0884 13.176C40.0884 13.176 40.0899 13.1745 40.0914 13.173C40.4361 12.7703 40.8185 12.4023 41.2355 12.0719C41.3394 11.9905 41.4447 11.9106 41.5516 11.8352C41.5607 11.8291 41.5712 11.8231 41.5802 11.8155C41.6796 11.7447 41.7804 11.6768 41.8828 11.6104C41.9024 11.5968 41.9235 11.5863 41.9445 11.5727C42.0379 11.5139 42.1312 11.4566 42.2275 11.4008C42.2682 11.3766 42.3103 11.3555 42.3525 11.3329C42.4293 11.2907 42.506 11.2469 42.5843 11.2077C42.6807 11.1579 42.78 11.1112 42.8794 11.0659C42.905 11.0539 42.9291 11.0418 42.9531 11.0297C47.0839 9.16553 51.9584 11.0162 53.819 15.1548C55.6797 19.2935 53.8326 24.1773 49.7018 26.0415C49.6762 26.0535 49.6506 26.0626 49.625 26.0731C49.5242 26.1169 49.4248 26.1606 49.3224 26.1998C49.2396 26.2315 49.1568 26.2617 49.0756 26.2903C49.0304 26.3069 48.9867 26.3235 48.9416 26.3386C48.8377 26.3733 48.7323 26.4065 48.627 26.4366C48.6044 26.4427 48.5818 26.4517 48.5577 26.4578C48.4403 26.4909 48.3229 26.5211 48.2039 26.5498C48.1934 26.5528 48.1814 26.5558 48.1708 26.5588C48.0429 26.589 47.9134 26.6146 47.7839 26.6387C47.2616 26.7338 46.7332 26.776 46.2033 26.7669H46.2003C46.0738 26.7654 45.9459 26.7594 45.8194 26.7504C45.8119 26.7504 45.8059 26.7504 45.7983 26.7504C45.6779 26.7428 45.5575 26.7307 45.4385 26.7172C45.4235 26.7157 45.4099 26.7142 45.3949 26.7126C45.2835 26.6991 45.1721 26.684 45.0607 26.6659C45.0366 26.6614 45.014 26.6583 44.9899 26.6553C44.8876 26.6387 44.7852 26.6176 44.6843 26.5965C44.6512 26.589 44.6181 26.5829 44.5835 26.5754C44.4916 26.5558 44.3998 26.5317 44.308 26.509C44.2658 26.4985 44.2222 26.4879 44.18 26.4759C44.0972 26.4532 44.0144 26.4276 43.9316 26.4035C43.8805 26.3884 43.8293 26.3718 43.7781 26.3552C43.7028 26.3311 43.6291 26.3039 43.5538 26.2768C43.4665 26.2451 43.3792 26.2149 43.2934 26.1802L42.6807 25.9359L39.2047 35.6385L39.2032 35.6431ZM43.9889 32.892L44.8334 30.6598C44.8575 30.6628 44.883 30.6628 44.9071 30.6658C45.1314 30.693 45.3572 30.7141 45.5816 30.7276C45.6719 30.7337 45.7637 30.7352 45.854 30.7397C46.0076 30.7457 46.1596 30.7503 46.3117 30.7503C46.4125 30.7503 46.5119 30.7503 46.6127 30.7488C46.7919 30.7442 46.9695 30.7367 47.1487 30.7246C47.251 30.7171 47.3519 30.7095 47.4543 30.7005C47.6394 30.6839 47.8246 30.6628 48.0082 30.6356C48.1016 30.6221 48.1949 30.607 48.2867 30.5919C48.4508 30.5647 48.6134 30.5346 48.776 30.5014C48.8543 30.4848 48.931 30.4712 49.0093 30.4531C49.2381 30.4003 49.467 30.3415 49.6943 30.2767C49.759 30.2571 49.8237 30.2359 49.89 30.2163C50.0691 30.1605 50.2483 30.1017 50.4259 30.0384C50.4966 30.0127 50.5674 29.9871 50.6381 29.9599C50.8685 29.8725 51.0973 29.7805 51.3231 29.6779C51.3261 29.6779 51.3291 29.6749 51.3336 29.6734C57.4621 26.9087 60.2019 19.6645 57.441 13.5244C54.6816 7.38427 47.4512 4.64074 41.3228 7.40539C41.3198 7.40539 41.3168 7.4084 41.3138 7.40991C41.088 7.51247 40.8682 7.62258 40.6499 7.73721C40.5837 7.77189 40.5174 7.80809 40.4512 7.8458C40.2856 7.9363 40.123 8.03132 39.9634 8.12935C39.9047 8.16555 39.846 8.19873 39.7888 8.23493C39.5886 8.36162 39.3944 8.49435 39.2032 8.6316C39.1385 8.67836 39.0768 8.72662 39.0135 8.77489C38.8811 8.87443 38.7501 8.977 38.6206 9.08257C38.5484 9.1414 38.4746 9.20173 38.4039 9.26206C38.2624 9.38272 38.1239 9.5079 37.9884 9.63611C37.9146 9.70549 37.8408 9.77638 37.7686 9.84877C37.6406 9.97547 37.5157 10.1037 37.3937 10.2349C37.326 10.3088 37.2598 10.3842 37.1935 10.4596C37.0927 10.5742 36.9948 10.6919 36.897 10.811C36.8398 10.8819 36.781 10.9513 36.7253 11.0237C36.5869 11.2017 36.4529 11.3842 36.3249 11.5712C36.3114 11.5908 36.2948 11.6104 36.2813 11.63L34.0533 10.7839C34.0969 10.7145 34.1391 10.6466 34.1827 10.5788C34.2204 10.5215 34.2565 10.4626 34.2957 10.4068C34.383 10.2756 34.4748 10.1459 34.5666 10.0177C34.5862 9.99055 34.6058 9.96189 34.6253 9.93323C34.7428 9.77185 34.8632 9.61348 34.9881 9.45662C34.9987 9.44305 35.0107 9.42947 35.0213 9.4159C35.1326 9.27714 35.2471 9.13989 35.363 9.00414C35.3931 8.96945 35.4247 8.93476 35.4548 8.90007C35.5542 8.78695 35.655 8.67534 35.7589 8.56524C35.795 8.52753 35.8311 8.48983 35.8673 8.45061C35.9696 8.34353 36.0735 8.23795 36.1789 8.13539C36.215 8.1007 36.2496 8.06601 36.2858 8.03132C36.4017 7.92121 36.5191 7.81262 36.638 7.70553C36.6651 7.6814 36.6907 7.65727 36.7178 7.63313C37.0174 7.36768 37.3275 7.1158 37.6497 6.87599C37.6707 6.8594 37.6933 6.84431 37.7144 6.82923C37.8484 6.72969 37.9854 6.63316 38.1239 6.53814C38.1705 6.50646 38.2172 6.4763 38.2639 6.44462C38.3798 6.3677 38.4972 6.29078 38.6161 6.21688C38.6718 6.18219 38.7275 6.1475 38.7832 6.11432C38.8976 6.04494 39.0135 5.97706 39.1295 5.9107C39.1867 5.87752 39.2439 5.84434 39.3026 5.81266C39.426 5.74479 39.5525 5.67843 39.6774 5.61357C39.7286 5.58793 39.7783 5.56078 39.828 5.53514C40.0056 5.44616 40.1847 5.36018 40.3669 5.27723C47.668 1.98319 56.2834 5.2531 59.5711 12.5682C62.8589 19.8832 59.5952 28.515 52.2941 31.8091C52.1119 31.8905 51.9283 31.9689 51.7446 32.0428C51.6919 32.064 51.6392 32.0836 51.585 32.1047C51.4526 32.156 51.3201 32.2072 51.1876 32.254C51.1259 32.2766 51.0627 32.2977 50.9994 32.3189C50.873 32.3626 50.745 32.4033 50.6186 32.444C50.5569 32.4636 50.4936 32.4833 50.4304 32.5014C50.2964 32.5406 50.1609 32.5783 50.027 32.6145C49.9728 32.6296 49.9186 32.6431 49.8644 32.6567C49.7018 32.6974 49.5392 32.7351 49.3751 32.7713C49.3495 32.7774 49.3224 32.7834 49.2968 32.7894C48.9039 32.8724 48.5095 32.9372 48.1136 32.987C48.0775 32.9915 48.0414 32.9946 48.0052 32.9991C47.8472 33.0172 47.6876 33.0338 47.5295 33.0473C47.4798 33.0519 47.4302 33.0549 47.379 33.0579C47.2315 33.0685 47.0839 33.0775 46.9379 33.0835C46.8852 33.0851 46.8325 33.0881 46.7798 33.0896C46.6293 33.0941 46.4803 33.0956 46.3297 33.0956C46.2831 33.0956 46.2364 33.0956 46.1897 33.0956C46.0121 33.0941 45.8345 33.0881 45.6568 33.079C45.6388 33.079 45.6222 33.079 45.6041 33.0775C45.4054 33.067 45.2067 33.0519 45.008 33.0338C44.9734 33.0308 44.9387 33.0262 44.9041 33.0217C44.7476 33.0066 44.591 32.9885 44.436 32.9674C44.3682 32.9584 44.3005 32.9478 44.2327 32.9372C44.1529 32.9252 44.0732 32.9116 43.9934 32.898L43.9889 32.892Z" fill="white"/>
<path d="M31.0574 24.1406L30.8843 24.2658C29.6318 25.1678 27.3738 26.848 26.3245 27.9595C23.6916 30.7513 23.4447 33.7196 23.6088 35.7271C23.8015 38.077 25.34 39.4781 25.4589 39.5083L25.212 38.5113C24.9772 37.5611 25.0223 36.5129 25.346 35.3953C26.3049 32.0861 28.4486 29.7046 32.2994 27.6715L32.4815 27.5749L32.8052 24.8359L31.0574 24.1406Z" fill="white"/>
<path d="M28.3824 20.755L26.749 21.2151L33.7882 24.212L33.016 33.1786L34.5244 31.2495C34.7607 30.9464 34.9639 30.6206 35.1325 30.2737L39.2182 21.8319L30.5983 20.6072C29.8576 20.5017 29.1034 20.5529 28.3824 20.755Z" fill="white"/>
<path d="M49.1753 18.3917C48.1246 16.8382 46.0893 16.3405 44.4333 17.2379C44.0118 17.4672 40.6925 19.1534 38.3651 20.2605L37.209 20.811L40.3357 21.2816L39.0546 24.4308L40.018 23.9029C41.269 23.2182 42.8467 22.3585 44.3596 21.535C46.3256 20.4641 48.1833 19.4536 49.0534 18.9709L49.4568 18.7432L49.1768 18.3932L49.1753 18.3917Z" fill="white"/>
<path d="M23.9521 63.7024C23.7669 64.3208 23.5517 64.5365 22.6876 64.5365H18.3069C17.4127 64.5365 17.1959 64.2891 17.0108 63.6707L14.8821 56.686L12.7535 63.6707C12.5684 64.3193 12.3531 64.5048 11.489 64.5048H7.51025C6.64615 64.5048 6.43088 64.2891 6.21411 63.6391L-0.076911 42.9336C-0.385516 41.9442 0.231694 41.9141 1.06417 41.9141H4.82764C5.5683 41.9141 5.5984 42.0679 5.81518 42.718L10.3494 57.8926L12.6632 50.1356L10.5045 42.9352C10.1959 41.9457 10.7815 41.9156 11.6154 41.9156H15.409C16.1181 41.9156 16.1798 42.0694 16.3649 42.7195L20.9308 57.8941L25.465 42.7496C25.6502 42.1011 25.6803 41.9457 26.3592 41.9457H29.1352C29.9992 41.9457 30.5547 42.0076 30.3078 42.7798L23.9536 63.7039L23.9521 63.7024Z" fill="white"/>
<path d="M74.7182 64.5888H71.3868C70.4926 64.5888 70.3691 64.4365 70.3691 63.5511V42.7673C70.3691 42.2484 70.5844 41.9121 71.2016 41.9121H74.5029C75.5522 41.9121 75.6139 42.2485 75.6139 42.9196V63.337C75.6139 64.1303 75.6139 64.5888 74.7197 64.5888H74.7182Z" fill="white"/>
<path d="M83.897 69.6942C83.6501 70.2809 83.2181 70.7137 82.6626 70.7137H80.0101C79.2077 70.7137 79.0226 70.4046 79.2694 69.7862L81.4282 64.3157L75.4744 48.8002C75.2275 48.1818 75.5045 47.9043 76.2767 47.9043H80.0402C80.5641 47.9043 80.9961 48.399 81.1813 48.9239L84.2041 57.5165L87.4121 48.9239C87.5973 48.4292 88.0594 47.9043 88.5848 47.9043H91.4842C92.3784 47.9043 92.5018 48.1818 92.2248 48.862L83.8955 69.6926L83.897 69.6942Z" fill="white"/>
<path d="M40.6182 57.6109H31.9186C31.9186 59.8054 33.43 61.0723 36.1442 61.0723C38.6733 61.0723 40.5866 60.6711 41.1105 60.5776C41.666 60.4539 42.0047 60.6696 42.0047 61.0723V63.3589C42.0047 64.0692 41.7894 64.3483 40.9871 64.5338C40.5249 64.6575 37.4088 64.9667 35.5887 64.9667C28.9259 64.9667 26.6738 61.659 26.6738 56.3439C26.6738 50.1932 29.1728 47.3818 34.7246 47.3818C39.846 47.3818 42.2516 49.9157 42.2516 53.718V56.1282C42.2516 57.1795 42.1598 57.6124 40.6167 57.6124L40.6182 57.6109ZM34.6027 50.6261C32.721 50.6261 32.0737 52.2958 32.042 53.7165C32.042 54.1494 32.0119 54.4586 32.4425 54.4586H36.6064C36.915 54.4586 36.9451 54.1811 36.9451 53.7482C36.915 52.1102 36.4829 50.6261 34.6012 50.6261H34.6027Z" fill="white"/>
<path d="M56.1007 57.6109H47.401C47.401 59.8054 48.9124 61.0723 51.6266 61.0723C54.1557 61.0723 56.069 60.6711 56.5929 60.5776C57.1484 60.4539 57.4871 60.6696 57.4871 61.0723V63.3589C57.4871 64.0692 57.2719 64.3483 56.4695 64.5338C56.0073 64.6575 52.8912 64.9667 51.0712 64.9667C44.4083 64.9667 42.1562 61.659 42.1562 56.3439C42.1562 50.1932 44.6552 47.3818 50.2071 47.3818C55.3284 47.3818 57.734 49.9157 57.734 53.718V56.1282C57.734 57.1795 57.6422 57.6124 56.0992 57.6124L56.1007 57.6109ZM50.0851 50.6261C48.2034 50.6261 47.5561 52.2958 47.5245 53.7165C47.5245 54.1494 47.4944 54.4586 47.9249 54.4586H52.0888C52.3974 54.4586 52.4275 54.1811 52.4275 53.7482C52.3974 52.1102 51.9654 50.6261 50.0836 50.6261H50.0851Z" fill="white"/>
<path d="M69.9746 46.2097H63.6821C63.0032 46.2097 62.8797 46.457 62.8797 46.7044V50.567C62.8797 51.0919 63.1567 51.2774 63.5586 51.2774H67.6985C68.5626 51.2774 68.7161 51.5866 68.6544 51.9878L68.5008 54.8309C68.3473 55.7268 67.4832 55.665 67.0195 55.665H63.7423C63.2184 55.665 62.9399 55.9425 62.9399 56.407V63.793C62.9399 64.3179 62.6629 64.5351 62.3543 64.5351H58.2205C57.8201 64.5351 57.3564 64.3194 57.3564 63.5456V42.9307C57.3564 42.344 57.3866 41.9111 58.0655 41.9111H70.3735C71.1142 41.9111 71.206 42.2203 71.206 42.5914V45.2806C71.206 46.0528 70.8673 46.2082 69.9716 46.2082L69.9746 46.2097Z" fill="white"/>
</svg>
