<svg version="1.2" xmlns="http://www.w3.org/2000/svg" viewBox="0 0 1440 812" width="1440" height="812"><defs><clipPath clipPathUnits="userSpaceOnUse" id="cp1"><path d="m0 0h1440v812h-1440z"/></clipPath><clipPath clipPathUnits="userSpaceOnUse" id="cp2"><path d="m1056.78-6h-42.92v42.92h42.92z"/></clipPath><clipPath clipPathUnits="userSpaceOnUse" id="cp3"><path d="m995.56-6h-42.93v42.92h42.93z"/></clipPath><clipPath clipPathUnits="userSpaceOnUse" id="cp4"><path d="m1118.75-6h-42.92v42.92h42.92z"/></clipPath><clipPath clipPathUnits="userSpaceOnUse" id="cp5"><path d="m1180.82-6h-42.92v42.92h42.92z"/></clipPath><clipPath clipPathUnits="userSpaceOnUse" id="cp6"><path d="m1364.38-6h-42.92v42.92h42.92z"/></clipPath><clipPath clipPathUnits="userSpaceOnUse" id="cp7"><path d="m872.37-6h-42.93v42.92h42.93z"/></clipPath><clipPath clipPathUnits="userSpaceOnUse" id="cp8"><path d="m1303.9-6h-42.92v42.92h42.92z"/></clipPath><clipPath clipPathUnits="userSpaceOnUse" id="cp9"><path d="m811.14-6h-42.92v42.92h42.92z"/></clipPath><clipPath clipPathUnits="userSpaceOnUse" id="cp10"><path d="m1241.94-6h-42.92v42.92h42.92z"/></clipPath><clipPath clipPathUnits="userSpaceOnUse" id="cp11"><path d="m933.27-6h-42.92v42.92h42.92z"/></clipPath><clipPath clipPathUnits="userSpaceOnUse" id="cp12"><path d="m749.92-6h-42.92v42.92h42.92z"/></clipPath><clipPath clipPathUnits="userSpaceOnUse" id="cp13"><path d="m1426.54-6h-42.92v42.92h42.92z"/></clipPath><clipPath clipPathUnits="userSpaceOnUse" id="cp14"><path d="m391 37h42.92v42.92h-42.92z"/></clipPath><clipPath clipPathUnits="userSpaceOnUse" id="cp15"><path d="m1199.76 70.15h42.92v42.92h-42.92z"/></clipPath><clipPath clipPathUnits="userSpaceOnUse" id="cp16"><path d="m531 70h42.92v42.92h-42.92z"/></clipPath><clipPath clipPathUnits="userSpaceOnUse" id="cp17"><path d="m613 16h42.92v42.92h-42.92z"/></clipPath><clipPath clipPathUnits="userSpaceOnUse" id="cp18"><path d="m768.97 70.15h42.92v42.92h-42.92z"/></clipPath><clipPath clipPathUnits="userSpaceOnUse" id="cp19"><path d="m1260.98 70.15h42.92v42.92h-42.92z"/></clipPath><clipPath clipPathUnits="userSpaceOnUse" id="cp20"><path d="m604 98h42.92v42.92h-42.92z"/></clipPath><clipPath clipPathUnits="userSpaceOnUse" id="cp21"><path d="m830.19 70.15h42.92v42.92h-42.92z"/></clipPath><clipPath clipPathUnits="userSpaceOnUse" id="cp22"><path d="m1322.95 70.15h42.92v42.92h-42.92z"/></clipPath><clipPath clipPathUnits="userSpaceOnUse" id="cp23"><path d="m905 49h42.92v42.92h-42.92z"/></clipPath><clipPath clipPathUnits="userSpaceOnUse" id="cp24"><path d="m461 92h42.92v42.92h-42.92z"/></clipPath><clipPath clipPathUnits="userSpaceOnUse" id="cp25"><path d="m707 70.15h42.92v42.92h-42.92z"/></clipPath><clipPath clipPathUnits="userSpaceOnUse" id="cp26"><path d="m308 27h42.92v42.92h-42.92z"/></clipPath><clipPath clipPathUnits="userSpaceOnUse" id="cp27"><path d="m1384.28 70.15h42.92v42.92h-42.92z"/></clipPath><clipPath clipPathUnits="userSpaceOnUse" id="cp28"><path d="m8 49h42.92v42.92h-42.92z"/></clipPath><clipPath clipPathUnits="userSpaceOnUse" id="cp29"><path d="m1152 49h42.92v42.92h-42.92z"/></clipPath><clipPath clipPathUnits="userSpaceOnUse" id="cp30"><path d="m749.92 146.31h-42.92v42.92h42.92z"/></clipPath><clipPath clipPathUnits="userSpaceOnUse" id="cp31"><path d="m1426.35 146.31h-42.92v42.92h42.92z"/></clipPath><clipPath clipPathUnits="userSpaceOnUse" id="cp32"><path d="m567.92 735h-42.92v42.92h42.92z"/></clipPath><clipPath clipPathUnits="userSpaceOnUse" id="cp33"><path d="m42.92 747h-42.92v42.92h42.92z"/></clipPath><clipPath clipPathUnits="userSpaceOnUse" id="cp34"><path d="m1364.38 146.31h-42.92v42.92h42.92z"/></clipPath><clipPath clipPathUnits="userSpaceOnUse" id="cp35"><path d="m667.92 176h-42.92v42.92h42.92z"/></clipPath><clipPath clipPathUnits="userSpaceOnUse" id="cp36"><path d="m801.92 119h-42.92v42.92h42.92z"/></clipPath><clipPath clipPathUnits="userSpaceOnUse" id="cp37"><path d="m1384.17 222.46h42.92v42.93h-42.92z"/></clipPath><clipPath clipPathUnits="userSpaceOnUse" id="cp38"><path d="m707 222.46h42.92v42.92h-42.92z"/></clipPath><clipPath clipPathUnits="userSpaceOnUse" id="cp39"><path d="m1426.61 298.62h-42.92v42.92h42.92z"/></clipPath><clipPath clipPathUnits="userSpaceOnUse" id="cp40"><path d="m1384.36 450.92h42.92v42.92h-42.92z"/></clipPath><clipPath clipPathUnits="userSpaceOnUse" id="cp41"><path d="m652 246h42.92v42.92h-42.92z"/></clipPath><clipPath clipPathUnits="userSpaceOnUse" id="cp42"><path d="m707 527.08h42.92v42.92h-42.92z"/></clipPath><clipPath clipPathUnits="userSpaceOnUse" id="cp43"><path d="m1384.17 527.08h42.92v42.92h-42.92z"/></clipPath><clipPath clipPathUnits="userSpaceOnUse" id="cp44"><path d="m145.92 38h-42.92v42.92h42.92z"/></clipPath><clipPath clipPathUnits="userSpaceOnUse" id="cp45"><path d="m752.92 580h-42.92v42.92h42.92z"/></clipPath><clipPath clipPathUnits="userSpaceOnUse" id="cp46"><path d="m1429.54 580h-42.92v42.92h42.92z"/></clipPath><clipPath clipPathUnits="userSpaceOnUse" id="cp47"><path d="m771.97 656.15h42.92v42.92h-42.92z"/></clipPath><clipPath clipPathUnits="userSpaceOnUse" id="cp48"><path d="m626 641h42.92v42.92h-42.92z"/></clipPath><clipPath clipPathUnits="userSpaceOnUse" id="cp49"><path d="m1325.95 656.15h42.92v42.92h-42.92z"/></clipPath><clipPath clipPathUnits="userSpaceOnUse" id="cp50"><path d="m710 656.15h42.92v42.92h-42.92z"/></clipPath><clipPath clipPathUnits="userSpaceOnUse" id="cp51"><path d="m1387.29 656.15h42.92v42.92h-42.92z"/></clipPath><clipPath clipPathUnits="userSpaceOnUse" id="cp52"><path d="m752.92 732.3h-42.92v42.93h42.92z"/></clipPath><clipPath clipPathUnits="userSpaceOnUse" id="cp53"><path d="m996.92 755h-42.92v42.92h42.92z"/></clipPath><clipPath clipPathUnits="userSpaceOnUse" id="cp54"><path d="m1429.35 732.3h-42.92v42.93h42.92z"/></clipPath><clipPath clipPathUnits="userSpaceOnUse" id="cp55"><path d="m936.59 732.3h-42.92v42.93h42.92z"/></clipPath><clipPath clipPathUnits="userSpaceOnUse" id="cp56"><path d="m673.92 749h-42.92v42.92h42.92z"/></clipPath><clipPath clipPathUnits="userSpaceOnUse" id="cp57"><path d="m1367.38 732.3h-42.92v42.93h42.92z"/></clipPath><clipPath clipPathUnits="userSpaceOnUse" id="cp58"><path d="m875.37 732.3h-42.93v42.93h42.93z"/></clipPath><clipPath clipPathUnits="userSpaceOnUse" id="cp59"><path d="m246.92 21h-42.92v42.92h42.92z"/></clipPath><clipPath clipPathUnits="userSpaceOnUse" id="cp60"><path d="m1306.9 732.3h-42.92v42.93h42.92z"/></clipPath><clipPath clipPathUnits="userSpaceOnUse" id="cp61"><path d="m611.92 750h-42.92v42.92h42.92z"/></clipPath><clipPath clipPathUnits="userSpaceOnUse" id="cp62"><path d="m86.92 762h-42.92v42.92h42.92z"/></clipPath><clipPath clipPathUnits="userSpaceOnUse" id="cp63"><path d="m814.14 732.3h-42.92v42.93h42.92z"/></clipPath><clipPath clipPathUnits="userSpaceOnUse" id="cp64"><path d="m618.92 693h-42.92v42.92h42.92z"/></clipPath><clipPath clipPathUnits="userSpaceOnUse" id="cp65"><path d="m114.92 715h-42.92v42.92h42.92z"/></clipPath><clipPath clipPathUnits="userSpaceOnUse" id="cp66"><path d="m1244.94 732.3h-42.92v42.93h42.92z"/></clipPath><clipPath clipPathUnits="userSpaceOnUse" id="cp67"><path d="m694.92 690h-42.92v42.92h42.92z"/></clipPath><clipPath clipPathUnits="userSpaceOnUse" id="cp68"><path d="m1058.42 755h-42.92v42.92h42.92z"/></clipPath><clipPath clipPathUnits="userSpaceOnUse" id="cp69"><path d="m1183.71 732.3h-42.92v42.93h42.92z"/></clipPath><clipPath clipPathUnits="userSpaceOnUse" id="cp70"><path d="m1120.11 755h-42.92v42.92h42.92z"/></clipPath><clipPath clipPathUnits="userSpaceOnUse" id="cp71"><path d="m1202.76 808.46h42.92v42.93h-42.92z"/></clipPath><clipPath clipPathUnits="userSpaceOnUse" id="cp72"><path d="m771.97 808.46h42.92v42.93h-42.92z"/></clipPath><clipPath clipPathUnits="userSpaceOnUse" id="cp73"><path d="m1263.98 808.46h42.92v42.93h-42.92z"/></clipPath><clipPath clipPathUnits="userSpaceOnUse" id="cp74"><path d="m833.19 808.46h42.92v42.93h-42.92z"/></clipPath><clipPath clipPathUnits="userSpaceOnUse" id="cp75"><path d="m1325.95 808.46h42.92v42.93h-42.92z"/></clipPath><clipPath clipPathUnits="userSpaceOnUse" id="cp76"><path d="m895.16 808.46h42.92v42.93h-42.92z"/></clipPath><clipPath clipPathUnits="userSpaceOnUse" id="cp77"><path d="m1387.17 808.46h42.92v42.93h-42.92z"/></clipPath><clipPath clipPathUnits="userSpaceOnUse" id="cp78"><path d="m955.63 808.46h42.93v42.93h-42.93z"/></clipPath><clipPath clipPathUnits="userSpaceOnUse" id="cp79"><path d="m1017.6 808.46h42.92v42.93h-42.92z"/></clipPath><clipPath clipPathUnits="userSpaceOnUse" id="cp80"><path d="m1078.82 808.46h42.92v42.93h-42.92z"/></clipPath><clipPath clipPathUnits="userSpaceOnUse" id="cp81"><path d="m1140.79 808.46h42.92v42.93h-42.92z"/></clipPath><clipPath clipPathUnits="userSpaceOnUse" id="cp82"><path d="m710 808.46h42.92v42.92h-42.92z"/></clipPath><clipPath clipPathUnits="userSpaceOnUse" id="cp83"><path d="m164.92 754h-42.92v42.92h42.92z"/></clipPath></defs><style>.a{fill:#fff}</style><g clip-path="url(#cp1)"><g style="opacity:.2"><g clip-path="url(#cp2)"><path fill-rule="evenodd" class="a" d="m1056.8-6h-42.9v42.9h42.9z"/></g><g clip-path="url(#cp3)"><path fill-rule="evenodd" class="a" d="m995.6-6h-43v42.9h43z"/></g><g clip-path="url(#cp4)"><path fill-rule="evenodd" class="a" d="m1118.8-6h-43v42.9h43z"/></g><g clip-path="url(#cp5)"><path fill-rule="evenodd" class="a" d="m1180.8-6h-42.9v42.9h42.9z"/></g><g clip-path="url(#cp6)"><path fill-rule="evenodd" class="a" d="m1364.4-6h-42.9v42.9h42.9z"/></g><g clip-path="url(#cp7)"><path fill-rule="evenodd" class="a" d="m872.4-6h-43v42.9h43z"/></g><g clip-path="url(#cp8)"><path fill-rule="evenodd" class="a" d="m1303.9-6h-42.9v42.9h42.9z"/></g><g clip-path="url(#cp9)"><path fill-rule="evenodd" class="a" d="m811.1-6h-42.9v42.9h42.9z"/></g><g clip-path="url(#cp10)"><path fill-rule="evenodd" class="a" d="m1241.9-6h-42.9v42.9h42.9z"/></g><g clip-path="url(#cp11)"><path fill-rule="evenodd" class="a" d="m933.3-6h-43v42.9h43z"/></g><g clip-path="url(#cp12)"><path fill-rule="evenodd" class="a" d="m749.9-6h-42.9v42.9h42.9z"/></g><g clip-path="url(#cp13)"><path fill-rule="evenodd" class="a" d="m1426.5-6h-42.9v42.9h42.9z"/></g><g clip-path="url(#cp14)"><path fill-rule="evenodd" class="a" d="m391 37h42.9v42.9h-42.9z"/></g><g clip-path="url(#cp15)"><path fill-rule="evenodd" class="a" d="m1199.8 70.2h42.9v42.9h-42.9z"/></g><g clip-path="url(#cp16)"><path fill-rule="evenodd" class="a" d="m531 70h42.9v42.9h-42.9z"/></g><g clip-path="url(#cp17)"><path fill-rule="evenodd" class="a" d="m613 16h42.9v42.9h-42.9z"/></g><g clip-path="url(#cp18)"><path fill-rule="evenodd" class="a" d="m769 70.2h42.9v42.9h-42.9z"/></g><g clip-path="url(#cp19)"><path fill-rule="evenodd" class="a" d="m1261 70.2h42.9v42.9h-42.9z"/></g><g clip-path="url(#cp20)"><path fill-rule="evenodd" class="a" d="m604 98h42.9v42.9h-42.9z"/></g><g clip-path="url(#cp21)"><path fill-rule="evenodd" class="a" d="m830.2 70.2h42.9v42.9h-42.9z"/></g><g clip-path="url(#cp22)"><path fill-rule="evenodd" class="a" d="m1323 70.2h42.9v42.9h-42.9z"/></g><g clip-path="url(#cp23)"><path fill-rule="evenodd" class="a" d="m905 49h42.9v42.9h-42.9z"/></g><g clip-path="url(#cp24)"><path fill-rule="evenodd" class="a" d="m461 92h42.9v42.9h-42.9z"/></g><g clip-path="url(#cp25)"><path fill-rule="evenodd" class="a" d="m707 70.2h42.9v42.9h-42.9z"/></g><g clip-path="url(#cp26)"><path fill-rule="evenodd" class="a" d="m308 27h42.9v42.9h-42.9z"/></g><g clip-path="url(#cp27)"><path fill-rule="evenodd" class="a" d="m1384.3 70.2h42.9v42.9h-42.9z"/></g><g clip-path="url(#cp28)"><path fill-rule="evenodd" class="a" d="m8 49h42.9v42.9h-42.9z"/></g><g clip-path="url(#cp29)"><path fill-rule="evenodd" class="a" d="m1152 49h42.9v42.9h-42.9z"/></g><g clip-path="url(#cp30)"><path fill-rule="evenodd" class="a" d="m749.9 146.3h-42.9v42.9h42.9z"/></g><g clip-path="url(#cp31)"><path fill-rule="evenodd" class="a" d="m1426.3 146.3h-42.9v42.9h42.9z"/></g><g clip-path="url(#cp32)"><path fill-rule="evenodd" class="a" d="m567.9 735h-42.9v42.9h42.9z"/></g><g clip-path="url(#cp33)"><path fill-rule="evenodd" class="a" d="m42.9 747h-42.9v42.9h42.9z"/></g><g clip-path="url(#cp34)"><path fill-rule="evenodd" class="a" d="m1364.4 146.3h-42.9v42.9h42.9z"/></g><g clip-path="url(#cp35)"><path fill-rule="evenodd" class="a" d="m667.9 176h-42.9v42.9h42.9z"/></g><g clip-path="url(#cp36)"><path fill-rule="evenodd" class="a" d="m801.9 119h-42.9v42.9h42.9z"/></g><g clip-path="url(#cp37)"><path fill-rule="evenodd" class="a" d="m1384.2 222.5h42.9v42.9h-42.9z"/></g><g clip-path="url(#cp38)"><path fill-rule="evenodd" class="a" d="m707 222.5h42.9v42.9h-42.9z"/></g><g clip-path="url(#cp39)"><path fill-rule="evenodd" class="a" d="m1426.6 298.6h-42.9v42.9h42.9z"/></g><g clip-path="url(#cp40)"><path fill-rule="evenodd" class="a" d="m1384.4 450.9h42.9v42.9h-42.9z"/></g><g clip-path="url(#cp41)"><path fill-rule="evenodd" class="a" d="m652 246h42.9v42.9h-42.9z"/></g><g clip-path="url(#cp42)"><path fill-rule="evenodd" class="a" d="m707 527.1h42.9v42.9h-42.9z"/></g><g clip-path="url(#cp43)"><path fill-rule="evenodd" class="a" d="m1384.2 527.1h42.9v42.9h-42.9z"/></g></g><g style="opacity:.2"><g clip-path="url(#cp44)"><path fill-rule="evenodd" class="a" d="m145.9 38h-42.9v42.9h42.9z"/></g><g clip-path="url(#cp45)"><path fill-rule="evenodd" class="a" d="m752.9 580h-42.9v42.9h42.9z"/></g><g clip-path="url(#cp46)"><path fill-rule="evenodd" class="a" d="m1429.5 580h-42.9v42.9h42.9z"/></g><g clip-path="url(#cp47)"><path fill-rule="evenodd" class="a" d="m772 656.1h42.9v43h-42.9z"/></g><g clip-path="url(#cp48)"><path fill-rule="evenodd" class="a" d="m626 641h42.9v42.9h-42.9z"/></g><g clip-path="url(#cp49)"><path fill-rule="evenodd" class="a" d="m1326 656.1h42.9v43h-42.9z"/></g><g clip-path="url(#cp50)"><path fill-rule="evenodd" class="a" d="m710 656.1h42.9v43h-42.9z"/></g><g clip-path="url(#cp51)"><path fill-rule="evenodd" class="a" d="m1387.3 656.2h42.9v42.9h-42.9z"/></g><g clip-path="url(#cp52)"><path fill-rule="evenodd" class="a" d="m752.9 732.3h-42.9v42.9h42.9z"/></g><g clip-path="url(#cp53)"><path fill-rule="evenodd" class="a" d="m996.9 755h-42.9v42.9h42.9z"/></g><g clip-path="url(#cp54)"><path fill-rule="evenodd" class="a" d="m1429.3 732.3h-42.9v42.9h42.9z"/></g><g clip-path="url(#cp55)"><path fill-rule="evenodd" class="a" d="m936.6 732.3h-42.9v42.9h42.9z"/></g><g clip-path="url(#cp56)"><path fill-rule="evenodd" class="a" d="m673.9 749h-42.9v42.9h42.9z"/></g><g clip-path="url(#cp57)"><path fill-rule="evenodd" class="a" d="m1367.4 732.3h-42.9v42.9h42.9z"/></g><g clip-path="url(#cp58)"><path fill-rule="evenodd" class="a" d="m875.4 732.3h-43v42.9h43z"/></g><g clip-path="url(#cp59)"><path fill-rule="evenodd" class="a" d="m246.9 21h-42.9v42.9h42.9z"/></g><g clip-path="url(#cp60)"><path fill-rule="evenodd" class="a" d="m1306.9 732.3h-42.9v42.9h42.9z"/></g><g clip-path="url(#cp61)"><path fill-rule="evenodd" class="a" d="m611.9 750h-42.9v42.9h42.9z"/></g><g clip-path="url(#cp62)"><path fill-rule="evenodd" class="a" d="m86.9 762h-42.9v42.9h42.9z"/></g><g clip-path="url(#cp63)"><path fill-rule="evenodd" class="a" d="m814.1 732.3h-42.9v42.9h42.9z"/></g><g clip-path="url(#cp64)"><path fill-rule="evenodd" class="a" d="m618.9 693h-42.9v42.9h42.9z"/></g><g clip-path="url(#cp65)"><path fill-rule="evenodd" class="a" d="m114.9 715h-42.9v42.9h42.9z"/></g><g clip-path="url(#cp66)"><path fill-rule="evenodd" class="a" d="m1244.9 732.3h-42.9v42.9h42.9z"/></g><g clip-path="url(#cp67)"><path fill-rule="evenodd" class="a" d="m694.9 690h-42.9v42.9h42.9z"/></g><g clip-path="url(#cp68)"><path fill-rule="evenodd" class="a" d="m1058.4 755h-42.9v42.9h42.9z"/></g><g clip-path="url(#cp69)"><path fill-rule="evenodd" class="a" d="m1183.7 732.3h-42.9v42.9h42.9z"/></g><g clip-path="url(#cp70)"><path fill-rule="evenodd" class="a" d="m1120.1 755h-42.9v42.9h42.9z"/></g><g clip-path="url(#cp71)"><path fill-rule="evenodd" class="a" d="m1202.8 808.5h42.9v42.9h-42.9z"/></g><g clip-path="url(#cp72)"><path fill-rule="evenodd" class="a" d="m772 808.5h42.9v42.9h-42.9z"/></g><g clip-path="url(#cp73)"><path fill-rule="evenodd" class="a" d="m1264 808.5h42.9v42.9h-42.9z"/></g><g clip-path="url(#cp74)"><path fill-rule="evenodd" class="a" d="m833.2 808.5h42.9v42.9h-42.9z"/></g><g clip-path="url(#cp75)"><path fill-rule="evenodd" class="a" d="m1326 808.5h42.9v42.9h-42.9z"/></g><g clip-path="url(#cp76)"><path fill-rule="evenodd" class="a" d="m895.2 808.5h42.9v42.9h-42.9z"/></g><g clip-path="url(#cp77)"><path fill-rule="evenodd" class="a" d="m1387.2 808.5h42.9v42.9h-42.9z"/></g><g clip-path="url(#cp78)"><path fill-rule="evenodd" class="a" d="m955.6 808.5h43v42.9h-43z"/></g><g clip-path="url(#cp79)"><path fill-rule="evenodd" class="a" d="m1017.6 808.5h42.9v42.9h-42.9z"/></g><g clip-path="url(#cp80)"><path fill-rule="evenodd" class="a" d="m1078.8 808.5h42.9v42.9h-42.9z"/></g><g clip-path="url(#cp81)"><path fill-rule="evenodd" class="a" d="m1140.8 808.5h42.9v42.9h-42.9z"/></g><g clip-path="url(#cp82)"><path fill-rule="evenodd" class="a" d="m710 808.5h42.9v42.9h-42.9z"/></g><g clip-path="url(#cp83)"><path fill-rule="evenodd" class="a" d="m164.9 754h-42.9v42.9h42.9z"/></g></g></g></svg>