<svg width="78" height="26" viewBox="0 0 78 26" fill="none" xmlns="http://www.w3.org/2000/svg">
<g clip-path="url(#clip0_429_436)">
<path d="M50.8204 0C45.2894 0 40.3233 2.96706 40.3233 8.41177C40.3233 14.6824 49.0957 15.1106 49.0957 18.2306C49.0957 19.5459 47.6088 20.7388 45.1109 20.7388C41.5425 20.7388 38.8662 19.0871 38.8662 19.0871L37.7362 24.5929C37.7362 24.5929 40.7991 26 44.9028 26C50.9691 26 55.727 22.9106 55.727 17.3435C55.727 10.7365 46.9249 10.3082 46.9249 7.40235C46.9249 6.36235 48.1441 5.23059 50.642 5.23059C53.467 5.23059 55.7865 6.42353 55.7865 6.42353L56.9165 1.10118C56.8868 1.10118 54.3591 0 50.8204 0ZM0.148685 0.397647L0 1.19294C0 1.19294 2.31948 1.62118 4.4308 2.50824C7.13687 3.51765 7.31529 4.09882 7.79108 5.90353L12.7571 25.5718H19.4182L29.618 0.397647H22.9867L16.4148 17.5271L13.7385 2.99765C13.5006 1.34588 12.2516 0.397647 10.7053 0.397647H0.148685ZM32.2943 0.397647L27.0904 25.5718H33.4243L38.5986 0.397647H32.2943ZM67.5623 0.397647C66.0458 0.397647 65.2429 1.22353 64.6481 2.69176L55.3702 25.5718H62.0015L63.2802 21.7482H71.3687L72.1418 25.5718H78L72.915 0.397647H67.5623ZM68.4247 7.21882L70.3873 16.6706H65.1239L68.4247 7.21882Z" fill="#1434CB"/>
</g>
<defs>
<clipPath id="clip0_429_436">
<rect width="78" height="26" fill="white"/>
</clipPath>
</defs>
</svg>
