<svg width="875" height="207" viewBox="0 0 875 207" fill="none" xmlns="http://www.w3.org/2000/svg">
<path fill-rule="evenodd" clip-rule="evenodd" d="M585.655 125.513C582.539 128.416 583.431 128.077 576.183 125.953C569.826 123.941 572.841 123.275 567.15 126.506C562.025 129.523 553.658 132.527 549.763 134.865C551.221 138.095 563.695 148.692 566.711 153.041C565.592 153.594 564.7 154.047 563.482 154.6C561.585 155.493 562.037 155.493 559.801 154.16C554.902 151.37 539.186 142.445 536.058 141.112C531.937 142.897 521.008 148.478 517.226 148.252C515.442 148.139 512.54 147.699 513.106 145.462C514.55 139.994 524.362 136.989 530.719 134.199C533.281 133.08 532.615 133.193 533.168 130.403C533.847 127.398 538.08 105.539 539.073 104.42C539.512 104.081 542.967 102.635 543.645 102.296C543.985 104.307 544.198 106.532 544.311 108.656L545.429 121.038C545.429 123.049 545.769 125.387 546.095 127.285C548.997 125.84 551.887 124.608 554.902 123.162C569.839 116.022 567.163 120.824 570.617 112.792C572.628 108.329 572.628 105.652 576.974 106.318C576.195 115.243 578.645 120.812 585.667 125.5L585.655 125.513ZM458.822 39.0805C462.842 40.3124 461.938 40.4255 467.516 35.2844C472.415 30.822 469.413 31.4882 475.983 32.0538C481.774 32.4938 490.694 31.7144 495.267 32.167C495.38 35.6238 488.583 50.5696 487.691 55.8114H491.259C493.382 55.8114 492.93 56.0376 494.488 53.9133C497.716 49.2246 507.98 34.3919 510.317 31.9407C514.89 31.8276 527.038 32.0538 530.379 30.382C531.937 29.4895 534.387 27.7046 532.942 25.9196C529.261 21.6835 519.123 23.129 512.214 23.3553C509.425 23.3553 510.103 23.2422 508.307 21.0173C506.41 18.5661 493.257 0.603366 491.925 0.0502805C491.372 -0.0628507 487.578 0.0502805 486.912 0.0502805C487.365 2.0615 488.144 4.06015 488.923 6.07137L493.269 17.7742C494.048 19.5591 494.827 21.8972 495.392 23.6821C492.164 23.569 488.923 23.6821 485.581 23.6821C469.086 23.6821 473.659 26.9127 466.963 21.1178C463.295 17.8873 462.177 15.5367 458.496 18.0004C462.956 25.6933 463.182 31.8276 458.835 39.0805H458.822ZM457.038 27.7046C458.709 27.4783 459.275 30.0426 457.365 30.382L454.689 30.7214C453.018 31.0608 452.34 28.3834 454.237 28.044L457.026 27.7046H457.038ZM220.308 206.15C219.416 207.935 216.966 206.59 217.745 205.031L218.411 203.586C219.303 201.914 221.753 203.246 220.861 204.818L220.308 206.163V206.15ZM224.541 197.339C223.649 199.01 221.2 197.791 222.092 196.107L223.323 193.655C224.102 191.984 226.551 193.316 225.773 194.875L224.541 197.326V197.339ZM229.554 187.521C228.775 189.08 226.212 187.974 227.104 186.289L228.436 183.838C229.215 182.279 231.664 183.398 230.886 185.183L229.541 187.521H229.554ZM234.906 177.93C233.901 179.602 231.564 178.043 232.456 176.598L233.901 174.147C234.906 172.475 237.129 174.033 236.237 175.479L234.906 177.93ZM240.471 168.452C239.466 170.011 237.129 168.565 238.134 167.007L239.579 164.669C240.471 163.11 242.921 164.556 241.916 166.114L240.471 168.452ZM246.388 159.088C245.496 160.533 243.046 159.201 244.051 157.642L245.609 155.304C246.501 153.858 248.951 155.191 247.833 156.863L246.388 159.088ZM252.518 150.05C251.4 151.495 249.29 149.823 250.295 148.378L251.853 146.153C252.971 144.707 255.194 146.379 254.076 147.825L252.518 150.05ZM258.976 141.125C257.858 142.57 255.747 140.899 256.853 139.453L258.523 137.228C259.641 135.783 261.752 137.568 260.634 138.9L258.963 141.125H258.976ZM265.445 132.766C264.44 133.319 263.222 132.426 263.322 131.32C263.209 130.654 263.762 129.761 264.553 129.648L265.445 128.53C266.564 127.197 268.787 128.869 267.569 130.315L267.342 130.654L267.782 130.767C269.566 131.433 268.448 133.998 266.777 133.331L265.433 132.778L265.445 132.766ZM272.908 124.067C271.563 125.412 269.679 123.514 270.898 122.169L272.681 120.158C274.013 118.712 275.91 120.711 274.692 121.943L272.908 124.067ZM280.382 115.922C279.151 117.254 277.041 115.369 278.372 114.024L280.269 112.012C281.5 110.68 283.498 112.566 282.279 113.911L280.382 115.922ZM288.071 108.116C286.626 109.348 284.842 107.223 286.174 106.104L288.071 104.206C289.515 102.861 291.299 104.986 290.081 106.218L288.071 108.116ZM296.098 100.536C294.754 101.768 292.87 99.7566 294.201 98.5247L296.324 96.6266C297.656 95.3947 299.553 97.5191 298.108 98.751L296.098 100.536ZM304.339 93.3961C303.108 94.5148 301.224 92.5036 302.669 91.2843L304.792 89.4993C306.349 88.2675 307.907 90.6181 306.462 91.6237L304.339 93.4086V93.3961ZM313.033 86.4825C311.475 87.6013 309.917 85.3638 311.362 84.3582L313.485 82.6863C315.043 81.5676 316.601 83.8051 315.156 84.8107L313.033 86.4825ZM321.839 80.0089C320.508 81.0145 318.724 78.8902 320.281 77.784C321.06 77.2309 321.839 76.6652 322.618 76.2253C323.95 75.2197 325.734 77.344 324.176 78.4502C323.397 79.0033 322.618 79.4558 321.839 80.0089ZM330.985 73.8747C329.427 74.8803 328.083 72.4291 329.54 71.5366L331.877 70.0911C333.435 69.0854 334.892 71.5366 333.321 72.4291L330.985 73.8747ZM340.344 68.193C338.899 69.0854 337.341 66.7474 339.012 65.7418L341.462 64.4094C342.907 63.5169 344.465 65.8549 342.794 66.8605L340.344 68.193ZM350.042 62.8381C348.258 63.7306 347.14 61.1663 348.698 60.3869L351.148 59.0545C352.819 58.2751 354.05 60.8394 352.492 61.6188L350.042 62.8507V62.8381ZM359.854 57.9357C358.296 58.7151 356.952 56.2639 358.623 55.3714C359.515 55.032 360.293 54.5921 361.185 54.2527C362.743 53.4733 363.974 55.9245 362.303 56.7039C361.525 57.1438 360.633 57.4832 359.854 57.9357ZM369.879 53.3602C368.095 54.0264 367.203 51.4621 368.761 50.7959L371.323 49.6772C373.107 49.0109 373.999 51.6758 372.328 52.2415L369.879 53.3602ZM380.017 49.2246C378.346 49.8909 377.341 47.3265 379.012 46.6603L381.688 45.6547C383.245 44.9885 384.364 47.5528 382.58 48.219L380.017 49.2246ZM390.381 45.441C388.71 45.9941 387.705 43.4298 389.489 42.8767C390.381 42.5373 391.273 42.2105 392.165 41.9842C393.723 41.318 394.728 43.8823 392.944 44.5485C392.052 44.8879 391.273 45.1016 390.381 45.441ZM400.858 42.0974C398.961 42.5373 398.409 39.8725 400.079 39.4199L402.755 38.6406C404.539 38.2006 405.205 40.8655 403.421 41.318L400.858 42.0974ZM411.449 39.0805C409.665 39.5331 408.999 36.8556 410.783 36.4031L413.459 35.7369C415.129 35.2969 415.908 37.9618 414.124 38.4143L411.449 39.0805ZM422.152 36.5162C420.481 36.9562 419.589 34.2913 421.486 33.7257L424.275 33.1726C426.172 32.8332 426.511 35.6238 424.828 35.85L422.152 36.5162ZM432.855 34.1782C431.071 34.5176 430.632 31.8401 432.416 31.5007L435.092 31.0608C436.988 30.7214 437.428 33.3988 435.644 33.7382L432.855 34.1782ZM443.772 32.2801C441.988 32.6195 441.436 29.9421 443.333 29.6027L446.008 29.1627C447.792 28.8233 448.345 31.6139 446.448 31.9533L443.772 32.2927V32.2801ZM72.6212 140.232C69.4931 143.136 70.3976 142.797 63.1489 140.572C56.7922 138.674 59.8073 137.894 54.1164 141.238C48.9908 144.142 40.6241 147.259 36.7297 149.597C38.1744 152.828 50.6617 163.424 53.6767 167.774C52.5586 168.327 51.6667 168.666 50.4481 169.219C48.5511 170.225 49.0034 170.225 46.7672 168.88C41.8678 166.089 26.1519 157.051 23.0238 155.832C18.9033 157.617 7.97375 163.198 4.19239 162.972C2.40849 162.859 -0.493481 162.306 0.0718387 160.068C1.51654 154.6 11.328 151.596 17.6847 148.805C20.2475 147.686 19.5816 147.913 20.1344 145.122C20.8002 142.005 25.0464 120.258 26.0388 119.14C26.378 118.8 29.9333 117.242 30.6117 117.015C30.9508 119.027 31.177 121.138 31.2775 123.263L32.3955 135.757C32.3955 137.656 32.7347 140.107 33.0614 141.892C35.9633 140.547 38.8528 139.214 41.8678 137.882C56.8048 130.742 54.0159 135.544 57.5837 127.511C59.5937 123.049 59.4806 120.372 63.9404 121.038C63.1615 129.963 65.6112 135.531 72.6337 140.22L72.6212 140.232ZM69.3926 129.196C67.7218 129.749 68.3876 132.313 70.2845 131.873L72.8473 130.981C74.4051 130.528 73.8523 127.863 71.9554 128.303L69.3926 129.196ZM359.741 189.193C361.185 190.425 362.743 188.187 361.412 187.081L360.293 186.189C358.736 184.957 357.178 187.194 358.51 188.313L359.741 189.206V189.193ZM352.04 183.059C353.484 184.178 355.155 182.053 353.824 180.934L351.6 179.15C350.155 178.031 348.485 180.268 349.929 181.374L352.052 183.046L352.04 183.059ZM343.359 176.372C344.691 177.49 346.475 175.366 345.03 174.147L342.806 172.475C341.362 171.469 339.578 173.594 341.135 174.712L343.359 176.384V176.372ZM334.44 169.898C335.997 171.017 337.455 168.565 335.997 167.673L333.661 166.114C332.103 164.996 330.646 167.459 332.103 168.339L334.44 169.898ZM325.294 163.764C326.852 164.769 328.309 162.431 326.852 161.426L324.515 159.98C322.957 158.974 321.399 161.212 322.957 162.218L325.294 163.776V163.764ZM316.048 157.856C317.493 158.748 319.05 156.523 317.379 155.518L315.043 154.072C313.598 153.18 312.04 155.405 313.598 156.41L316.048 157.856ZM306.462 152.275C308.246 153.167 309.364 150.716 307.907 149.823L305.457 148.491C303.787 147.598 302.555 150.05 304.126 150.942L306.462 152.287V152.275ZM296.877 147.033C298.548 147.812 299.666 145.361 298.108 144.582L295.659 143.237C293.988 142.457 292.757 144.908 294.427 145.688L296.877 147.02V147.033ZM286.953 142.13C288.624 142.91 289.855 140.459 288.171 139.566L285.722 138.447C284.164 137.668 282.82 140.006 284.49 140.899L286.94 142.13H286.953ZM277.041 137.555C278.825 138.221 279.717 135.657 278.046 134.991L275.483 133.872C273.812 133.206 272.807 135.77 274.478 136.436L277.041 137.555ZM256.526 129.523C258.423 130.076 258.976 127.398 257.418 126.958L254.742 126.066C252.845 125.513 252.292 128.19 253.85 128.63L256.526 129.523ZM246.049 126.179C247.72 126.732 248.498 124.055 246.828 123.502L244.152 122.722C242.368 122.27 241.589 124.947 243.373 125.4L246.049 126.179ZM235.458 123.288C237.016 123.728 238.021 121.163 236.124 120.61L233.448 119.944C231.438 119.504 231.112 122.282 232.783 122.622L235.458 123.288ZM224.768 120.724C226.551 121.063 226.991 118.386 225.32 118.046L222.531 117.493C220.747 117.154 220.195 119.831 221.966 120.17L224.755 120.724H224.768ZM213.951 118.712C215.622 119.052 216.288 116.374 214.391 115.922C213.499 115.809 212.494 115.582 211.602 115.482C209.931 115.142 209.265 117.82 211.162 118.272C212.054 118.385 213.059 118.499 213.951 118.725V118.712ZM203.022 117.04C204.919 117.267 205.145 114.476 203.361 114.363L200.685 114.024C198.788 113.797 198.562 116.588 200.346 116.701L203.022 117.04ZM192.105 115.922C193.889 116.035 194.228 113.357 192.331 113.131L189.542 112.905C187.871 112.679 187.419 115.469 189.429 115.695L192.105 115.922ZM181.188 115.142C183.085 115.256 182.972 112.465 181.301 112.465L178.512 112.352C176.615 112.239 176.615 115.029 178.399 115.029L181.188 115.142ZM170.145 114.916C171.929 114.916 172.042 112.126 170.145 112.126H167.356C165.685 112.126 165.459 114.916 167.356 114.916H170.145ZM159.115 115.142C161.125 114.916 160.786 112.239 159.002 112.352L156.326 112.465C154.429 112.578 154.655 115.369 156.439 115.256L159.115 115.142ZM148.186 115.695C149.969 115.582 149.743 112.792 147.959 112.905L145.171 113.131C143.387 113.244 143.613 116.035 145.397 115.922L148.186 115.695ZM137.269 116.701C138.939 116.588 138.826 113.797 136.929 114.024C136.037 114.137 135.032 114.25 134.141 114.363C132.47 114.476 132.583 117.267 134.48 117.04C135.372 116.927 136.264 116.814 137.269 116.701ZM126.339 118.147C128.236 117.807 127.57 115.142 125.899 115.469L123.111 115.809C121.327 116.261 121.879 118.939 123.55 118.599L126.339 118.147ZM115.422 120.045C117.206 119.705 116.766 116.927 114.982 117.254L112.194 117.807C110.523 118.147 110.962 120.824 112.746 120.485L115.422 120.032V120.045ZM104.719 122.169C106.39 121.943 105.95 119.152 104.053 119.492L101.377 120.158C99.4801 120.61 100.372 123.275 102.043 122.835L104.719 122.169ZM94.0154 124.847C95.7993 124.293 95.0204 121.616 93.2365 122.169L90.5607 122.835C88.7768 123.275 89.5556 125.953 91.3395 125.513L94.0154 124.847ZM83.3246 127.75C85.1085 127.31 84.4426 124.52 82.5457 125.073L79.9829 125.852C78.3121 126.292 78.8648 128.97 80.7618 128.53L83.3246 127.75ZM582.426 114.476C580.756 115.029 581.421 117.594 583.318 117.154L585.881 116.261C587.439 115.809 586.999 113.144 584.989 113.697L582.426 114.476ZM872.775 174.587C874.219 175.705 875.89 173.468 874.445 172.462L873.327 171.457C871.77 170.225 870.212 172.575 871.543 173.581L872.775 174.587ZM865.086 168.452C866.543 169.571 868.202 167.334 866.87 166.227L864.634 164.556C863.189 163.437 861.506 165.561 862.963 166.68L865.074 168.465L865.086 168.452ZM856.393 161.652C857.724 162.771 859.508 160.646 858.064 159.528L855.84 157.856C854.395 156.737 852.611 158.861 854.169 160.081L856.393 161.639V161.652ZM847.473 155.291C849.031 156.297 850.488 153.959 849.031 152.953L846.808 151.395C845.137 150.389 843.679 152.74 845.25 153.733L847.473 155.291ZM838.34 149.044C839.898 150.05 841.343 147.712 839.898 146.706L837.561 145.26C836.004 144.255 834.546 146.605 836.004 147.598L838.34 149.044ZM829.082 143.136C830.539 144.142 832.097 141.904 830.539 140.798L828.089 139.352C826.758 138.46 825.087 140.685 826.758 141.804L829.094 143.136H829.082ZM819.609 137.555C821.28 138.447 822.398 135.996 820.954 135.217L818.504 133.771C816.833 132.992 815.602 135.443 817.172 136.223L819.622 137.568L819.609 137.555ZM809.911 132.313C811.582 133.093 812.813 130.755 811.13 129.862L808.68 128.63C807.009 127.738 805.891 130.302 807.449 131.081L809.898 132.301L809.911 132.313ZM799.987 127.411C801.657 128.19 802.888 125.739 801.218 124.96L798.768 123.728C797.21 122.948 795.878 125.4 797.537 126.179L799.987 127.411ZM790.075 122.835C791.858 123.502 792.75 120.937 791.08 120.271L788.63 119.152C786.846 118.486 785.841 121.164 787.512 121.717L790.075 122.835ZM779.823 118.712C781.494 119.379 782.6 116.814 780.828 116.035L778.266 115.142C776.595 114.476 775.59 117.04 777.261 117.707L779.823 118.712ZM769.56 114.916C771.457 115.469 772.009 112.691 770.452 112.239L767.776 111.346C765.879 110.793 765.326 113.471 766.884 114.024L769.56 114.916ZM759.095 111.459C760.879 112.012 761.545 109.335 759.874 108.895L757.198 108.116C755.414 107.563 754.635 110.24 756.419 110.68L759.095 111.459ZM748.505 108.568C750.062 109.008 751.068 106.444 749.171 105.891L746.495 105.225C744.485 104.785 744.146 107.563 745.829 107.902L748.505 108.568ZM737.801 106.104C739.585 106.444 740.025 103.653 738.354 103.314L735.565 102.761C733.781 102.421 733.329 105.099 735.125 105.438L737.801 106.104ZM726.985 103.993C728.656 104.332 729.334 101.655 727.425 101.315C726.533 101.089 725.641 100.976 724.636 100.762C723.078 100.536 722.299 103.213 724.196 103.553C725.201 103.666 726.093 103.892 726.985 104.005V103.993ZM716.068 102.321C717.965 102.547 718.191 99.8697 716.407 99.6434L713.731 99.304C711.834 99.0778 711.608 101.868 713.392 101.981L716.068 102.321ZM705.138 101.202C706.922 101.428 707.249 98.6378 705.365 98.4116L702.576 98.1853C700.905 98.0722 700.453 100.75 702.463 100.976L705.138 101.202ZM694.221 100.536C696.118 100.536 696.005 97.7453 694.334 97.7453L691.546 97.6322C689.649 97.6322 689.649 100.31 691.433 100.423L694.221 100.536ZM683.179 100.197C684.963 100.197 685.076 97.5191 683.179 97.406H680.39C678.719 97.406 678.493 100.197 680.39 100.197H683.179ZM672.149 100.423C674.159 100.31 673.82 97.5191 672.036 97.6322L669.36 97.7453C667.463 97.8585 667.689 100.649 669.473 100.536L672.149 100.423ZM661.232 100.976C663.016 100.863 662.903 98.0722 661.006 98.2984L658.217 98.5247C656.433 98.6378 656.659 101.315 658.443 101.202L661.232 100.976ZM650.302 102.095C651.973 101.868 651.86 99.0778 649.963 99.304C649.071 99.4172 648.066 99.5303 647.174 99.6434C645.503 99.7566 645.617 102.547 647.514 102.321C648.405 102.208 649.297 102.095 650.302 102.095ZM639.385 103.427C641.282 103.088 640.604 100.423 638.946 100.75L636.157 101.19C634.373 101.529 634.926 104.206 636.597 103.867L639.385 103.414V103.427ZM628.456 105.325C630.24 104.986 629.8 102.321 628.016 102.648L625.24 103.088C623.569 103.427 624.009 106.205 625.793 105.878L628.469 105.325H628.456ZM617.765 107.563C619.436 107.223 618.996 104.445 617.099 104.885L614.423 105.438C612.526 105.991 613.418 108.568 615.089 108.116L617.765 107.563ZM607.062 110.127C608.846 109.574 608.067 107.01 606.396 107.449L603.607 108.116C601.823 108.669 602.602 111.233 604.386 110.793L607.062 110.127ZM596.471 113.018C598.142 112.578 597.476 109.901 595.693 110.341L593.017 111.12C591.346 111.56 591.899 114.35 593.796 113.797L596.471 113.018Z" fill="#EE5128"/>
</svg>
