<svg width="28" height="28" viewBox="0 0 28 28" fill="none" xmlns="http://www.w3.org/2000/svg">
<path d="M14.8086 2.2511C16.0761 2.25448 16.7195 2.26124 17.2749 2.27701L17.4935 2.2849C17.7459 2.29391 17.9949 2.30518 18.2957 2.3187C19.4945 2.37503 20.3125 2.56432 21.0302 2.84261C21.7738 3.12879 22.4003 3.51637 23.0267 4.14169C23.5998 4.70473 24.0432 5.38609 24.3258 6.13818C24.6041 6.85589 24.7933 7.67386 24.8497 8.87379C24.8632 9.17349 24.8745 9.42249 24.8835 9.676L24.8902 9.89457C24.9071 10.4489 24.9139 11.0922 24.9162 12.3598L24.9173 13.2003V14.6763C24.92 15.4981 24.9114 16.3199 24.8914 17.1415L24.8846 17.36C24.8756 17.6135 24.8643 17.8625 24.8508 18.1622C24.7945 19.3622 24.6029 20.179 24.3258 20.8978C24.0432 21.6499 23.5998 22.3313 23.0267 22.8943C22.4637 23.4675 21.7823 23.9108 21.0302 24.1934C20.3125 24.4717 19.4945 24.661 18.2957 24.7173L17.4935 24.7511L17.2749 24.7579C16.7195 24.7737 16.0761 24.7815 14.8086 24.7838L13.9681 24.7849H12.4933C11.6711 24.7878 10.8489 24.7792 10.0269 24.759L9.80835 24.7523C9.54089 24.7421 9.27348 24.7305 9.00615 24.7173C7.80735 24.661 6.98937 24.4717 6.27054 24.1934C5.51884 23.9107 4.83789 23.4673 4.27517 22.8943C3.70162 22.3314 3.25789 21.65 2.97497 20.8978C2.69667 20.1801 2.50739 19.3622 2.45105 18.1622L2.41725 17.36L2.41162 17.1415C2.39085 16.3199 2.38146 15.4981 2.38345 14.6763V12.3598C2.38033 11.538 2.3886 10.7162 2.40824 9.89457L2.41613 9.676C2.42514 9.42249 2.43641 9.17349 2.44993 8.87379C2.50626 7.67386 2.69555 6.85701 2.97384 6.13818C3.25742 5.38578 3.70193 4.7044 4.2763 4.14169C4.83869 3.56882 5.51925 3.12549 6.27054 2.84261C6.98937 2.56432 7.80622 2.37503 9.00615 2.3187C9.30585 2.30518 9.55597 2.29391 9.80835 2.2849L10.0269 2.27814C10.8485 2.25812 11.6703 2.24948 12.4921 2.25223L14.8086 2.2511ZM13.6504 7.88456C12.1563 7.88456 10.7234 8.47808 9.66691 9.53456C8.61043 10.591 8.01691 12.0239 8.01691 13.518C8.01691 15.0121 8.61043 16.445 9.66691 17.5015C10.7234 18.5579 12.1563 19.1515 13.6504 19.1515C15.1445 19.1515 16.5773 18.5579 17.6338 17.5015C18.6903 16.445 19.2838 15.0121 19.2838 13.518C19.2838 12.0239 18.6903 10.591 17.6338 9.53456C16.5773 8.47808 15.1445 7.88456 13.6504 7.88456ZM13.6504 10.1379C14.0942 10.1379 14.5338 10.2252 14.9439 10.395C15.354 10.5648 15.7267 10.8137 16.0406 11.1275C16.3545 11.4414 16.6036 11.8139 16.7735 12.224C16.9434 12.6341 17.0309 13.0736 17.031 13.5175C17.0311 13.9613 16.9437 14.4009 16.7739 14.811C16.6041 15.2211 16.3552 15.5938 16.0414 15.9077C15.7276 16.2216 15.355 16.4706 14.945 16.6406C14.5349 16.8105 14.0954 16.898 13.6515 16.8981C12.755 16.8981 11.8953 16.542 11.2614 15.9081C10.6275 15.2742 10.2714 14.4145 10.2714 13.518C10.2714 12.6216 10.6275 11.7618 11.2614 11.1279C11.8953 10.4941 12.755 10.1379 13.6515 10.1379M19.5666 6.19452C19.1931 6.19452 18.8349 6.3429 18.5708 6.60702C18.3066 6.87114 18.1583 7.22936 18.1583 7.60288C18.1583 7.9764 18.3066 8.33463 18.5708 8.59875C18.8349 8.86287 19.1931 9.01125 19.5666 9.01125C19.9401 9.01125 20.2984 8.86287 20.5625 8.59875C20.8266 8.33463 20.975 7.9764 20.975 7.60288C20.975 7.22936 20.8266 6.87114 20.5625 6.60702C20.2984 6.3429 19.9401 6.19452 19.5666 6.19452Z" fill="#EE5128"/>
</svg>
