<svg width="28" height="28" viewBox="0 0 28 28" fill="none" xmlns="http://www.w3.org/2000/svg">
<path fill-rule="evenodd" clip-rule="evenodd" d="M20.3613 3.38123C21.2578 3.38123 22.1175 3.73734 22.7514 4.37123C23.3853 5.00511 23.7414 5.86485 23.7414 6.7613V20.2816C23.7414 21.1781 23.3853 22.0378 22.7514 22.6717C22.1175 23.3056 21.2578 23.6617 20.3613 23.6617H6.84101C5.94456 23.6617 5.08483 23.3056 4.45094 22.6717C3.81705 22.0378 3.46094 21.1781 3.46094 20.2816V6.7613C3.46094 5.86485 3.81705 5.00511 4.45094 4.37123C5.08483 3.73734 5.94456 3.38123 6.84101 3.38123H20.3613ZM9.0944 11.2681C8.79558 11.2681 8.509 11.3868 8.2977 11.5981C8.08641 11.8094 7.9677 12.0959 7.9677 12.3948V18.0282C7.9677 18.327 8.08641 18.6136 8.2977 18.8249C8.509 19.0362 8.79558 19.1549 9.0944 19.1549C9.39321 19.1549 9.67979 19.0362 9.89109 18.8249C10.1024 18.6136 10.2211 18.327 10.2211 18.0282V12.3948C10.2211 12.0959 10.1024 11.8094 9.89109 11.5981C9.67979 11.3868 9.39321 11.2681 9.0944 11.2681ZM12.4745 10.1414C12.1757 10.1414 11.8891 10.2601 11.6778 10.4714C11.4665 10.6827 11.3478 10.9693 11.3478 11.2681V18.0282C11.3478 18.327 11.4665 18.6136 11.6778 18.8249C11.8891 19.0362 12.1757 19.1549 12.4745 19.1549C12.7733 19.1549 13.0599 19.0362 13.2712 18.8249C13.4825 18.6136 13.6012 18.327 13.6012 18.0282V13.9045C13.9448 13.5169 14.525 13.0618 15.1706 12.7857C15.5458 12.6257 16.1103 12.5604 16.5024 12.6843C16.6325 12.7173 16.7483 12.7916 16.8325 12.8961C16.8911 12.975 16.9812 13.1508 16.9812 13.5215V18.0282C16.9812 18.327 17.0999 18.6136 17.3112 18.8249C17.5225 19.0362 17.8091 19.1549 18.1079 19.1549C18.4067 19.1549 18.6933 19.0362 18.9046 18.8249C19.1159 18.6136 19.2346 18.327 19.2346 18.0282V13.5215C19.2346 12.7666 19.0431 12.0951 18.6442 11.5565C18.2772 11.0681 17.7636 10.71 17.1784 10.5346C16.1621 10.2157 15.0366 10.3926 14.2851 10.7149C14.0445 10.8183 13.8101 10.9357 13.5831 11.0664C13.5359 10.8068 13.3991 10.572 13.1965 10.403C12.9938 10.2339 12.7383 10.1413 12.4745 10.1414ZM9.0944 7.88799C8.79558 7.88799 8.509 8.0067 8.2977 8.21799C8.08641 8.42929 7.9677 8.71587 7.9677 9.01468C7.9677 9.3135 8.08641 9.60008 8.2977 9.81138C8.509 10.0227 8.79558 10.1414 9.0944 10.1414C9.39321 10.1414 9.67979 10.0227 9.89109 9.81138C10.1024 9.60008 10.2211 9.3135 10.2211 9.01468C10.2211 8.71587 10.1024 8.42929 9.89109 8.21799C9.67979 8.0067 9.39321 7.88799 9.0944 7.88799Z" fill="#EE5128"/>
</svg>
