<svg width="26" height="26" viewBox="0 0 26 26" fill="none" xmlns="http://www.w3.org/2000/svg">
<g clip-path="url(#clip0_1135_2740)">
<path d="M7.66853 25.5133C7.15592 25.1723 6.7016 24.7509 6.32303 24.2653C5.90661 23.7642 5.52079 23.2383 5.16766 22.6907C4.33897 21.4767 3.6891 20.1498 3.23797 18.7509C2.69603 17.1259 2.43359 15.5683 2.43359 14.0449C2.43359 12.3435 2.80166 10.8583 3.52153 9.61027C4.05516 8.63482 4.83974 7.81966 5.79409 7.24914C6.71897 6.67468 7.78166 6.36031 8.87022 6.33914C9.25128 6.33914 9.66159 6.39439 10.0971 6.50002C10.4099 6.58858 10.791 6.72833 11.2565 6.90221C11.8488 7.13052 12.1747 7.27027 12.2852 7.30439C12.6321 7.43114 12.9238 7.48639 13.1529 7.48639C13.3268 7.48639 13.5722 7.43114 13.8508 7.34664C14.0077 7.29139 14.3034 7.19389 14.7267 7.01271C15.146 6.85996 15.4758 6.72914 15.7383 6.63164C16.1405 6.51302 16.5297 6.40333 16.8766 6.34808C17.2879 6.28324 17.7053 6.26606 18.1205 6.29689C18.8401 6.34393 19.5488 6.49641 20.2241 6.74946C21.3283 7.19389 22.2212 7.88777 22.8858 8.87414C22.6049 9.04728 22.3413 9.24699 22.0985 9.47052C21.5701 9.93899 21.12 10.489 20.7652 11.0996C20.3015 11.9341 20.0611 12.8741 20.0673 13.8288C20.0843 15.0012 20.385 16.0339 20.9773 16.9268C21.4127 17.5886 21.9787 18.1546 22.6405 18.59C22.9793 18.8183 23.271 18.9751 23.5505 19.0808C23.4197 19.487 23.2799 19.8803 23.115 20.2703C22.7409 21.1448 22.2875 21.9833 21.7605 22.7752C21.2909 23.4569 20.9228 23.9647 20.6433 24.3027C20.2078 24.8186 19.7886 25.2127 19.3653 25.4873C18.8997 25.7961 18.3497 25.961 17.7907 25.961C17.4121 25.9756 17.0336 25.9298 16.6694 25.8253C16.3566 25.7197 16.047 25.6051 15.7423 25.4743C15.4256 25.3288 15.099 25.2058 14.7649 25.1063C13.9392 24.8942 13.0734 24.8928 12.247 25.1022C11.9082 25.1997 11.5823 25.3135 11.2606 25.4532C10.808 25.6433 10.5074 25.7709 10.3335 25.8253C9.98659 25.9269 9.62666 25.9903 9.26266 26.0114C8.69959 26.0114 8.17472 25.8505 7.65472 25.5247L7.66853 25.5133ZM15.0948 5.51364C14.3587 5.88171 13.6558 6.03852 12.9579 5.98733C12.8482 5.28452 12.9579 4.56546 13.2496 3.77814C13.4979 3.11114 13.8648 2.49454 14.3327 1.95814C14.8267 1.39347 15.4261 0.930637 16.0974 0.595582C16.8124 0.227519 17.4941 0.0284565 18.1457 -0.000793457C18.2302 0.735332 18.1457 1.45927 17.8752 2.24171C17.6248 2.93337 17.2585 3.5774 16.7921 4.14621C16.316 4.71165 15.7318 5.17628 15.0737 5.51283L15.0948 5.51364Z" fill="black"/>
</g>
<defs>
<clipPath id="clip0_1135_2740">
<rect width="26" height="26" fill="white"/>
</clipPath>
</defs>
</svg>
