<svg width="25" height="25" viewBox="0 0 25 25" fill="none" xmlns="http://www.w3.org/2000/svg">
<g clip-path="url(#clip0_1135_2559)">
<path d="M19.9584 10.6438H20.9681C21.2359 10.6438 21.4927 10.7502 21.6821 10.9395C21.8714 11.1289 21.9778 11.3857 21.9778 11.6535V21.7508C21.9778 22.0186 21.8714 22.2754 21.6821 22.4648C21.4927 22.6541 21.2359 22.7605 20.9681 22.7605H4.81246C4.54466 22.7605 4.28784 22.6541 4.09848 22.4648C3.90912 22.2754 3.80273 22.0186 3.80273 21.7508L3.80273 11.6535C3.80273 11.3857 3.90912 11.1289 4.09848 10.9395C4.28784 10.7502 4.54466 10.6438 4.81246 10.6438H5.82219V9.63406C5.82219 8.70587 6.00501 7.78676 6.36021 6.92922C6.71542 6.07169 7.23605 5.29251 7.89238 4.63617C8.54871 3.97984 9.32789 3.45921 10.1854 3.104C11.043 2.7488 11.9621 2.56598 12.8903 2.56598C13.8185 2.56598 14.7376 2.7488 15.5951 3.104C16.4526 3.45921 17.2318 3.97984 17.8882 4.63617C18.5445 5.29251 19.0651 6.07169 19.4203 6.92922C19.7755 7.78676 19.9584 8.70587 19.9584 9.63406V10.6438ZM5.82219 12.6632L5.82219 20.7411H19.9584V12.6632L5.82219 12.6632ZM11.8805 14.6827H13.9L13.9 18.7216H11.8805L11.8805 14.6827ZM17.9389 10.6438V9.63406C17.9389 8.29508 17.407 7.01094 16.4602 6.06414C15.5134 5.11734 14.2293 4.58543 12.8903 4.58543C11.5513 4.58543 10.2672 5.11734 9.32035 6.06414C8.37355 7.01094 7.84164 8.29508 7.84164 9.63406L7.84164 10.6438H17.9389Z" fill="white"/>
</g>
<defs>
<clipPath id="clip0_1135_2559">
<rect width="24.2334" height="24.2334" fill="white" transform="translate(0.773926 0.54657)"/>
</clipPath>
</defs>
</svg>
