<svg width="25" height="25" viewBox="0 0 25 25" fill="none" xmlns="http://www.w3.org/2000/svg">
<g clip-path="url(#clip0_1135_2551)">
<path d="M3.8027 3.48636L21.9778 3.48636C22.2456 3.48636 22.5024 3.59274 22.6918 3.7821C22.8811 3.97146 22.9875 4.22829 22.9875 4.49608V20.6517C22.9875 20.9195 22.8811 21.1763 22.6918 21.3657C22.5024 21.5551 22.2456 21.6614 21.9778 21.6614H3.8027C3.5349 21.6614 3.27807 21.5551 3.08871 21.3657C2.89935 21.1763 2.79297 20.9195 2.79297 20.6517L2.79297 4.49608C2.79297 4.22829 2.89935 3.97146 3.08871 3.7821C3.27807 3.59274 3.5349 3.48636 3.8027 3.48636ZM20.968 7.76558L12.9629 14.9346L4.81242 7.74336L4.81242 19.642H20.968V7.76558ZM5.32839 5.50581L12.9518 12.2326L20.4652 5.50581L5.32839 5.50581Z" fill="white"/>
</g>
<defs>
<clipPath id="clip0_1135_2551">
<rect width="24.2334" height="24.2334" fill="white" transform="translate(0.773926 0.457184)"/>
</clipPath>
</defs>
</svg>
