<svg width="93" height="71" viewBox="0 0 93 71" fill="none" xmlns="http://www.w3.org/2000/svg">
<g clip-path="url(#clip0_1229_35)">
<path d="M39.2032 35.6432L39.2002 35.6492L39.7692 35.8649C39.7692 35.8649 39.7708 35.8649 39.7723 35.8649L39.8069 35.8785C39.9469 35.9313 40.0884 35.9765 40.2284 36.0263C40.3714 36.0761 40.5144 36.1304 40.6574 36.1771C40.8155 36.2284 40.9751 36.2721 41.1346 36.3189C41.2686 36.3581 41.4011 36.4018 41.5351 36.438C41.7007 36.4833 41.8663 36.5195 42.0318 36.5602C42.1613 36.5919 42.2893 36.6266 42.4187 36.6537C42.5843 36.6899 42.7529 36.7186 42.9185 36.7503C43.048 36.7744 43.1789 36.803 43.3084 36.8257C43.4695 36.8528 43.6306 36.8724 43.7931 36.895C43.9301 36.9147 44.0671 36.9373 44.2041 36.9539C44.3577 36.972 44.5127 36.9825 44.6663 36.9976C44.8108 37.0112 44.9568 37.0278 45.1013 37.0383C45.2474 37.0489 45.3919 37.0504 45.5379 37.0579C45.6914 37.064 45.8465 37.0745 46 37.0775C46.1355 37.0806 46.2725 37.076 46.408 37.0745C46.5721 37.0745 46.7347 37.076 46.8988 37.0715C47.0252 37.067 47.1517 37.0564 47.2781 37.0504C47.4512 37.0413 47.6244 37.0353 47.796 37.0217C47.9134 37.0127 48.0308 36.9961 48.1497 36.984C48.3304 36.9659 48.511 36.9509 48.6902 36.9267C48.8001 36.9116 48.91 36.892 49.0199 36.8754C49.2065 36.8468 49.3932 36.8211 49.5799 36.788C49.6882 36.7684 49.7951 36.7427 49.9035 36.7216C50.0902 36.6839 50.2784 36.6492 50.4635 36.6055C50.5734 36.5798 50.6818 36.5481 50.7917 36.521C50.9754 36.4742 51.159 36.4305 51.3412 36.3792C51.4646 36.3445 51.585 36.3023 51.7085 36.2646C51.8756 36.2133 52.0442 36.165 52.2098 36.1092C52.3964 36.0459 52.5801 35.975 52.7653 35.9056C52.8661 35.8679 52.9685 35.8332 53.0694 35.794C53.3539 35.6824 53.6369 35.5617 53.9184 35.4351C54.7629 35.0535 55.5698 34.6146 56.336 34.1244C59.6539 31.9932 62.195 28.8681 63.6176 25.1065C63.7847 24.6646 63.9277 24.2196 64.0602 23.7717C64.709 21.5771 64.9469 19.3147 64.7692 17.0765C64.7451 16.7778 64.7135 16.4777 64.6759 16.1791C64.6292 15.8141 64.566 15.4506 64.4968 15.0871C64.4064 14.612 64.2965 14.1399 64.1686 13.6708C63.9142 12.7417 63.589 11.8262 63.1856 10.9318C62.7836 10.0374 62.3139 9.18526 61.7886 8.37985C61.5236 7.97262 61.2421 7.57745 60.9471 7.19435C60.7212 6.90175 60.4909 6.61367 60.2501 6.33766C60.0529 6.11142 59.8496 5.88971 59.6419 5.67252C58.0868 4.05566 56.2382 2.73442 54.1683 1.76763C53.7453 1.57004 53.3177 1.38302 52.8767 1.2156C49.1237 -0.209704 45.1028 -0.375613 41.3108 0.702794C40.4361 0.951657 39.5735 1.26688 38.729 1.64697C38.4475 1.77366 38.1705 1.90639 37.898 2.04666C37.8017 2.09643 37.7084 2.15073 37.6135 2.20201C37.4389 2.29552 37.2643 2.38601 37.0942 2.48405C36.9421 2.57153 36.7946 2.66504 36.6456 2.75705C36.5357 2.82341 36.4243 2.88827 36.3174 2.95614C36.1578 3.0587 36.0028 3.16729 35.8477 3.27438C35.7544 3.33773 35.658 3.39957 35.5662 3.46442C35.4111 3.57603 35.2606 3.69217 35.1086 3.80831C35.0213 3.87467 34.9309 3.93802 34.8451 4.0074C34.6961 4.12504 34.5531 4.24872 34.4086 4.36938C34.3227 4.44177 34.2354 4.50965 34.1511 4.58355C34.0141 4.7027 33.8832 4.82789 33.7492 4.95157C33.6619 5.03151 33.5731 5.10993 33.4873 5.19138C33.3623 5.31204 33.2434 5.43723 33.123 5.5609C33.0341 5.6514 32.9423 5.73888 32.8565 5.83088C32.7436 5.95004 32.6382 6.07371 32.5283 6.19739C32.438 6.29845 32.3447 6.39799 32.2559 6.50206C32.1565 6.61971 32.0617 6.74187 31.9638 6.86103C31.872 6.97415 31.7771 7.08576 31.6883 7.20189C31.5995 7.31803 31.5167 7.43718 31.4294 7.55483C31.3376 7.68001 31.2442 7.80218 31.1554 7.93038C31.0771 8.0435 31.0034 8.16115 30.9266 8.27728C30.8363 8.41303 30.7444 8.54726 30.6571 8.68602C30.5879 8.79764 30.5232 8.91377 30.4539 9.0284C30.3666 9.1747 30.2778 9.31949 30.195 9.4673C30.1302 9.58344 30.0715 9.70259 30.0083 9.82024C29.9285 9.97106 29.8457 10.1204 29.7705 10.2742C29.7087 10.3994 29.653 10.5276 29.5943 10.6528C29.5236 10.8036 29.4513 10.9514 29.3851 11.1038C29.3249 11.2425 29.2707 11.3858 29.212 11.5261C29.1563 11.6648 29.096 11.8006 29.0434 11.9409L29.0298 11.9755V11.9786L28.8115 12.5487H28.8175L38.3738 16.3721L38.5981 15.7507C38.6297 15.6632 38.6643 15.5773 38.6989 15.4913C38.729 15.4174 38.7576 15.345 38.7892 15.2726C38.8103 15.2228 38.8329 15.1746 38.8555 15.1248C38.8916 15.0464 38.9277 14.9679 38.9654 14.8895C38.9849 14.8503 39.006 14.8111 39.0256 14.7704C39.0692 14.6859 39.1129 14.6014 39.1581 14.5185C39.1746 14.4883 39.1912 14.4597 39.2092 14.4295C39.2604 14.339 39.3131 14.25 39.3688 14.161C39.3809 14.1414 39.3944 14.1203 39.408 14.1007C39.4682 14.0057 39.5299 13.9106 39.5946 13.8186C39.6037 13.8066 39.6112 13.7945 39.6202 13.7824C39.6895 13.6829 39.7617 13.5864 39.834 13.4898C39.8385 13.4838 39.843 13.4793 39.8475 13.4732C39.9258 13.3722 40.0056 13.2742 40.0884 13.1761C40.0884 13.1761 40.0899 13.1746 40.0914 13.1731C40.4361 12.7704 40.8185 12.4024 41.2355 12.0721C41.3394 11.9906 41.4447 11.9107 41.5516 11.8353C41.5607 11.8292 41.5712 11.8232 41.5802 11.8157C41.6796 11.7448 41.7804 11.6769 41.8828 11.6105C41.9024 11.597 41.9235 11.5864 41.9445 11.5728C42.0379 11.514 42.1312 11.4567 42.2275 11.4009C42.2682 11.3768 42.3103 11.3556 42.3525 11.333C42.4293 11.2908 42.506 11.2471 42.5843 11.2078C42.6807 11.1581 42.78 11.1113 42.8794 11.0661C42.905 11.054 42.9291 11.0419 42.9531 11.0299C47.0839 9.16565 51.9584 11.0163 53.819 15.155C55.6797 19.2936 53.8326 24.1774 49.7018 26.0416C49.6762 26.0537 49.6506 26.0627 49.625 26.0733C49.5242 26.117 49.4248 26.1607 49.3224 26.2C49.2396 26.2316 49.1568 26.2618 49.0756 26.2905C49.0304 26.307 48.9867 26.3236 48.9416 26.3387C48.8377 26.3734 48.7323 26.4066 48.627 26.4368C48.6044 26.4428 48.5818 26.4518 48.5577 26.4579C48.4403 26.4911 48.3229 26.5212 48.2039 26.5499C48.1934 26.5529 48.1814 26.5559 48.1708 26.5589C48.0429 26.5891 47.9134 26.6147 47.7839 26.6389C47.2616 26.7339 46.7332 26.7761 46.2033 26.7671H46.2003C46.0738 26.7656 45.9459 26.7595 45.8194 26.7505C45.8119 26.7505 45.8059 26.7505 45.7983 26.7505C45.6779 26.7429 45.5575 26.7309 45.4385 26.7173C45.4235 26.7158 45.4099 26.7143 45.3949 26.7128C45.2835 26.6992 45.1721 26.6841 45.0607 26.666C45.0366 26.6615 45.014 26.6585 44.9899 26.6555C44.8876 26.6389 44.7852 26.6178 44.6843 26.5966C44.6512 26.5891 44.6181 26.5831 44.5835 26.5755C44.4916 26.5559 44.3998 26.5318 44.308 26.5092C44.2658 26.4986 44.2222 26.488 44.18 26.476C44.0972 26.4533 44.0144 26.4277 43.9316 26.4036C43.8805 26.3885 43.8293 26.3719 43.7781 26.3553C43.7028 26.3312 43.6291 26.304 43.5538 26.2769C43.4665 26.2452 43.3792 26.215 43.2934 26.1804L42.6807 25.936L39.2047 35.6387L39.2032 35.6432ZM43.9889 32.8921L44.8334 30.6599C44.8575 30.6629 44.883 30.6629 44.9071 30.6659C45.1314 30.6931 45.3572 30.7142 45.5816 30.7278C45.6719 30.7338 45.7637 30.7353 45.854 30.7398C46.0076 30.7459 46.1596 30.7504 46.3117 30.7504C46.4125 30.7504 46.5119 30.7504 46.6127 30.7489C46.7919 30.7444 46.9695 30.7368 47.1487 30.7247C47.251 30.7172 47.3519 30.7097 47.4543 30.7006C47.6394 30.684 47.8246 30.6629 48.0082 30.6358C48.1016 30.6222 48.1949 30.6071 48.2867 30.592C48.4508 30.5649 48.6134 30.5347 48.776 30.5015C48.8543 30.4849 48.931 30.4714 49.0093 30.4533C49.2381 30.4005 49.467 30.3417 49.6943 30.2768C49.759 30.2572 49.8237 30.2361 49.89 30.2165C50.0691 30.1607 50.2483 30.1018 50.4259 30.0385C50.4966 30.0128 50.5674 29.9872 50.6381 29.9601C50.8685 29.8726 51.0973 29.7806 51.3231 29.678C51.3261 29.678 51.3291 29.675 51.3336 29.6735C57.4621 26.9088 60.2019 19.6647 57.441 13.5245C54.6816 7.38439 47.4512 4.64087 41.3228 7.40551C41.3198 7.40551 41.3168 7.40853 41.3138 7.41003C41.088 7.5126 40.8682 7.6227 40.6499 7.73733C40.5837 7.77202 40.5174 7.80822 40.4512 7.84592C40.2856 7.93642 40.123 8.03144 39.9634 8.12948C39.9047 8.16567 39.846 8.19885 39.7888 8.23505C39.5886 8.36175 39.3944 8.49447 39.2032 8.63173C39.1385 8.67848 39.0768 8.72675 39.0135 8.77501C38.8811 8.87456 38.7501 8.97712 38.6206 9.0827C38.5484 9.14152 38.4746 9.20185 38.4039 9.26218C38.2624 9.38284 38.1239 9.50803 37.9884 9.63623C37.9146 9.70561 37.8408 9.7765 37.7686 9.84889C37.6406 9.97559 37.5157 10.1038 37.3937 10.235C37.326 10.3089 37.2598 10.3843 37.1935 10.4597C37.0927 10.5744 36.9948 10.692 36.897 10.8112C36.8398 10.8821 36.781 10.9514 36.7253 11.0238C36.5869 11.2018 36.4529 11.3843 36.3249 11.5713C36.3114 11.5909 36.2948 11.6105 36.2813 11.6302L34.0533 10.784C34.0969 10.7146 34.1391 10.6468 34.1827 10.5789C34.2204 10.5216 34.2565 10.4628 34.2957 10.407C34.383 10.2757 34.4748 10.146 34.5666 10.0178C34.5862 9.99067 34.6058 9.96201 34.6253 9.93336C34.7428 9.77197 34.8632 9.6136 34.9881 9.45675C34.9987 9.44317 35.0107 9.4296 35.0213 9.41602C35.1326 9.27726 35.2471 9.14001 35.363 9.00427C35.3931 8.96958 35.4247 8.93489 35.4548 8.9002C35.5542 8.78708 35.655 8.67547 35.7589 8.56536C35.795 8.52766 35.8311 8.48995 35.8673 8.45074C35.9696 8.34365 36.0735 8.23807 36.1789 8.13551C36.215 8.10082 36.2496 8.06613 36.2858 8.03144C36.4017 7.92133 36.5191 7.81274 36.638 7.70565C36.6651 7.68152 36.6907 7.65739 36.7178 7.63326C37.0174 7.3678 37.3275 7.11592 37.6497 6.87611C37.6707 6.85952 37.6933 6.84444 37.7144 6.82935C37.8484 6.72981 37.9854 6.63328 38.1239 6.53826C38.1705 6.50659 38.2172 6.47642 38.2639 6.44475C38.3798 6.36783 38.4972 6.2909 38.6161 6.217C38.6718 6.18231 38.7275 6.14762 38.7832 6.11444C38.8976 6.04506 39.0135 5.97719 39.1295 5.91082C39.1867 5.87764 39.2439 5.84446 39.3026 5.81279C39.426 5.74491 39.5525 5.67855 39.6774 5.61369C39.7286 5.58805 39.7783 5.56091 39.828 5.53526C40.0056 5.44628 40.1847 5.36031 40.3669 5.27735C47.668 1.98331 56.2834 5.25322 59.5711 12.5683C62.8589 19.8834 59.5952 28.5151 52.2941 31.8092C52.1119 31.8906 51.9283 31.9691 51.7446 32.043C51.6919 32.0641 51.6392 32.0837 51.585 32.1048C51.4526 32.1561 51.3201 32.2074 51.1876 32.2541C51.1259 32.2767 51.0627 32.2979 50.9994 32.319C50.873 32.3627 50.745 32.4034 50.6186 32.4442C50.5569 32.4638 50.4936 32.4834 50.4304 32.5015C50.2964 32.5407 50.1609 32.5784 50.027 32.6146C49.9728 32.6297 49.9186 32.6433 49.8644 32.6568C49.7018 32.6976 49.5392 32.7353 49.3751 32.7715C49.3495 32.7775 49.3224 32.7835 49.2968 32.7896C48.9039 32.8725 48.5095 32.9374 48.1136 32.9871C48.0775 32.9917 48.0414 32.9947 48.0052 32.9992C47.8472 33.0173 47.6876 33.0339 47.5295 33.0475C47.4798 33.052 47.4302 33.055 47.379 33.058C47.2315 33.0686 47.0839 33.0776 46.9379 33.0837C46.8852 33.0852 46.8325 33.0882 46.7798 33.0897C46.6293 33.0942 46.4803 33.0957 46.3297 33.0957C46.2831 33.0957 46.2364 33.0957 46.1897 33.0957C46.0121 33.0942 45.8345 33.0882 45.6568 33.0791C45.6388 33.0791 45.6222 33.0791 45.6041 33.0776C45.4054 33.0671 45.2067 33.052 45.008 33.0339C44.9734 33.0309 44.9387 33.0264 44.9041 33.0218C44.7476 33.0067 44.591 32.9886 44.436 32.9675C44.3682 32.9585 44.3005 32.9479 44.2327 32.9374C44.1529 32.9253 44.0732 32.9117 43.9934 32.8982L43.9889 32.8921Z" fill="#EE5128"/>
<path d="M31.0574 24.141L30.8843 24.2662C29.6318 25.1681 27.3738 26.8483 26.3245 27.9599C23.6916 30.7517 23.4447 33.72 23.6088 35.7275C23.8015 38.0773 25.34 39.4785 25.4589 39.5087L25.212 38.5117C24.9772 37.5615 25.0223 36.5133 25.346 35.3956C26.3049 32.0865 28.4486 29.705 32.2994 27.6718L32.4815 27.5753L32.8052 24.8363L31.0574 24.141Z" fill="#EE5128"/>
<path d="M28.3824 20.7555L26.749 21.2156L33.7882 24.2125L33.016 33.1791L34.5244 31.25C34.7607 30.9469 34.9639 30.6211 35.1325 30.2742L39.2182 21.8324L30.5983 20.6077C29.8576 20.5022 29.1034 20.5534 28.3824 20.7555Z" fill="#EE5128"/>
<path d="M49.1753 18.3921C48.1246 16.8386 46.0893 16.3409 44.4333 17.2383C44.0118 17.4675 40.6925 19.1538 38.3651 20.2608L37.209 20.8114L40.3357 21.2819L39.0546 24.4312L40.018 23.9033C41.269 23.2185 42.8467 22.3588 44.3596 21.5353C46.3256 20.4645 48.1833 19.4539 49.0534 18.9713L49.4568 18.7435L49.1768 18.3936L49.1753 18.3921Z" fill="#EE5128"/>
<path d="M23.9521 63.7024C23.7669 64.3208 23.5517 64.5365 22.6876 64.5365H18.3069C17.4127 64.5365 17.1959 64.2891 17.0108 63.6707L14.8821 56.686L12.7535 63.6707C12.5684 64.3193 12.3531 64.5048 11.489 64.5048H7.51025C6.64615 64.5048 6.43088 64.2891 6.21411 63.6391L-0.076911 42.9336C-0.385516 41.9442 0.231694 41.9141 1.06417 41.9141H4.82764C5.5683 41.9141 5.5984 42.0679 5.81518 42.718L10.3494 57.8926L12.6632 50.1356L10.5045 42.9352C10.1959 41.9457 10.7815 41.9156 11.6154 41.9156H15.409C16.1181 41.9156 16.1798 42.0694 16.3649 42.7195L20.9308 57.8941L25.465 42.7496C25.6502 42.1011 25.6803 41.9457 26.3592 41.9457H29.1352C29.9992 41.9457 30.5547 42.0076 30.3078 42.7798L23.9536 63.7039L23.9521 63.7024Z" fill="#EE5128"/>
<path d="M74.7182 64.5891H71.3868C70.4926 64.5891 70.3691 64.4367 70.3691 63.5514V42.7675C70.3691 42.2487 70.5844 41.9124 71.2016 41.9124H74.5029C75.5522 41.9124 75.6139 42.2487 75.6139 42.9199V63.3372C75.6139 64.1306 75.6139 64.5891 74.7197 64.5891H74.7182Z" fill="#EE5128"/>
<path d="M83.897 69.6943C83.6501 70.281 83.2181 70.7139 82.6626 70.7139H80.0101C79.2077 70.7139 79.0226 70.4047 79.2694 69.7863L81.4282 64.3158L75.4744 48.8003C75.2275 48.1819 75.5045 47.9044 76.2767 47.9044H80.0402C80.5641 47.9044 80.9961 48.3991 81.1813 48.924L84.2041 57.5166L87.4121 48.924C87.5973 48.4293 88.0594 47.9044 88.5848 47.9044H91.4842C92.3784 47.9044 92.5018 48.1819 92.2248 48.8622L83.8955 69.6928L83.897 69.6943Z" fill="#EE5128"/>
<path d="M40.6182 57.611H31.9186C31.9186 59.8055 33.43 61.0725 36.1442 61.0725C38.6733 61.0725 40.5866 60.6713 41.1105 60.5777C41.666 60.4541 42.0047 60.6697 42.0047 61.0725V63.359C42.0047 64.0694 41.7894 64.3484 40.9871 64.5339C40.5249 64.6576 37.4088 64.9668 35.5887 64.9668C28.9259 64.9668 26.6738 61.6592 26.6738 56.3441C26.6738 50.1934 29.1728 47.382 34.7246 47.382C39.846 47.382 42.2516 49.9158 42.2516 53.7182V56.1284C42.2516 57.1796 42.1598 57.6125 40.6167 57.6125L40.6182 57.611ZM34.6027 50.6262C32.721 50.6262 32.0737 52.2959 32.042 53.7167C32.042 54.1495 32.0119 54.4587 32.4425 54.4587H36.6064C36.915 54.4587 36.9451 54.1812 36.9451 53.7483C36.915 52.1104 36.4829 50.6262 34.6012 50.6262H34.6027Z" fill="#EE5128"/>
<path d="M56.1007 57.611H47.401C47.401 59.8055 48.9124 61.0725 51.6266 61.0725C54.1557 61.0725 56.069 60.6713 56.5929 60.5777C57.1484 60.4541 57.4871 60.6697 57.4871 61.0725V63.359C57.4871 64.0694 57.2719 64.3484 56.4695 64.5339C56.0073 64.6576 52.8912 64.9668 51.0712 64.9668C44.4083 64.9668 42.1562 61.6592 42.1562 56.3441C42.1562 50.1934 44.6552 47.382 50.2071 47.382C55.3284 47.382 57.734 49.9158 57.734 53.7182V56.1284C57.734 57.1796 57.6422 57.6125 56.0992 57.6125L56.1007 57.611ZM50.0851 50.6262C48.2034 50.6262 47.5561 52.2959 47.5245 53.7167C47.5245 54.1495 47.4944 54.4587 47.9249 54.4587H52.0888C52.3974 54.4587 52.4275 54.1812 52.4275 53.7483C52.3974 52.1104 51.9654 50.6262 50.0836 50.6262H50.0851Z" fill="#EE5128"/>
<path d="M69.9746 46.2098H63.6821C63.0032 46.2098 62.8797 46.4572 62.8797 46.7045V50.5672C62.8797 51.092 63.1567 51.2776 63.5586 51.2776H67.6985C68.5626 51.2776 68.7161 51.5868 68.6544 51.988L68.5008 54.831C68.3473 55.7269 67.4832 55.6651 67.0195 55.6651H63.7423C63.2184 55.6651 62.9399 55.9426 62.9399 56.4072V63.7931C62.9399 64.318 62.6629 64.5352 62.3543 64.5352H58.2205C57.8201 64.5352 57.3564 64.3195 57.3564 63.5458V42.9308C57.3564 42.3441 57.3866 41.9113 58.0655 41.9113H70.3735C71.1142 41.9113 71.206 42.2205 71.206 42.5915V45.2807C71.206 46.0529 70.8673 46.2083 69.9716 46.2083L69.9746 46.2098Z" fill="#EE5128"/>
</g>
<defs>
<clipPath id="clip0_1229_35">
<rect width="92.5152" height="71" fill="white"/>
</clipPath>
</defs>
</svg>
