<svg width="25" height="25" viewBox="0 0 25 25" fill="none" xmlns="http://www.w3.org/2000/svg">
<path d="M4.77393 18.4573C4.77393 17.3964 5.19535 16.379 5.9455 15.6288C6.69564 14.8787 7.71306 14.4573 8.77393 14.4573H16.7739C17.8348 14.4573 18.8522 14.8787 19.6024 15.6288C20.3525 16.379 20.7739 17.3964 20.7739 18.4573C20.7739 18.9877 20.5632 19.4964 20.1881 19.8715C19.8131 20.2466 19.3044 20.4573 18.7739 20.4573H6.77393C6.24349 20.4573 5.73478 20.2466 5.35971 19.8715C4.98464 19.4964 4.77393 18.9877 4.77393 18.4573Z" stroke="white" stroke-width="1.5" stroke-linejoin="round"/>
<path d="M12.7739 10.4573C14.4308 10.4573 15.7739 9.11413 15.7739 7.45728C15.7739 5.80042 14.4308 4.45728 12.7739 4.45728C11.1171 4.45728 9.77393 5.80042 9.77393 7.45728C9.77393 9.11413 11.1171 10.4573 12.7739 10.4573Z" stroke="white" stroke-width="1.5"/>
</svg>
